<svg viewbox="0 0 200 100" xmlns="http://www.w3.org/2000/svg" style="vector-effect:non-scaling-stroke" class="logo">
  <g>
    <path class="church" d="M118.949 9.249c-.367 3.304-.98 3.793-6.486 4.895-11.136 2.325-14.929 6.486-13.338 14.807 1.101 5.996 3.304 5.262 2.325-.734l-.857-4.895h8.811v10.646c.122 13.338 1.101 15.052 9.3 15.174l5.996.122-4.895 1.102c-11.38 2.57-10.523 1.958-9.667 6.73.612 3.549.245 4.773-2.08 6.975-1.591 1.469-3.304 2.57-3.916 2.325-.612-.122-1.346.857-1.713 2.203-.612 2.447-3.794 3.182-11.625 2.57-1.958-.123-3.427.367-3.427.979 0 .734-1.59 1.346-3.426 1.346s-4.038.612-4.773 1.346c-.734.734-7.22 1.468-15.174 1.59-17.499.368-20.68 1.592-20.68 7.465 0 2.937.611 4.283 1.835 4.283 1.102 0 1.836-1.101 1.836-2.814 0-3.671 5.506-6.608 8.076-4.406 1.346 1.102 2.448 1.102 4.65-.122 1.591-.857 3.427-1.224 4.16-.734.613.367 9.056-.734 18.724-2.325 9.667-1.713 18.233-2.815 19.09-2.448a1.939 1.939 0 0 0 2.325-1.223c.49-.98 1.59-1.836 2.447-1.836.979 0 2.325-1.346 2.937-3.06.612-1.712 1.713-3.058 2.325-3.058.612 0 1.468-1.102 1.958-2.326.979-3.304 9.545-2.936 10.157.368.244 1.346 2.08 3.67 4.038 5.262 1.958 1.713 3.304 3.548 2.815 4.16-.368.612.244 1.101 1.223 1.101 1.224 0 1.958-1.1 1.958-3.059 0-2.937.245-3.06 8.566-3.06 7.71 0 8.566.246 8.688 2.448.368 4.773.49 5.262 2.08 5.752.98.367 1.47-.98 1.47-4.406v-4.894l10.4.611c8.567.612 10.402.368 10.402-1.1 0-2.448-2.447-2.815-14.317-2.815l-9.912.122-.734-3.549c-1.224-5.996-.857-11.747.856-11.87.734 0 2.692-.245 4.16-.612 2.448-.367 2.693.123 3.06 5.385.245 4.16.857 5.751 2.203 5.751.979 0 1.713-.612 1.713-1.224-.122-.734-.49-3.548-.979-6.24-.734-5.018-.734-5.018 3.671-5.752 6.73-1.101 7.71-.245 8.077 7.832.244 4.038.856 7.097 1.59 6.975.735-.245 1.102-3.426.735-7.465-.367-6.24-.123-6.975 1.958-6.975 3.915 0 5.262 2.57 5.262 10.035 0 5.751.367 7.097 1.957 7.097 1.714 0 1.958-.979 1.224-5.629-.367-3.182-.734-6.975-.734-8.566 0-1.958-1.958-4.405-6.24-7.832-5.875-4.65-9.668-6.118-9.668-3.916 0 .612 1.346 1.836 3.059 2.693 4.405 2.325 3.794 3.059-2.692 3.181-3.304.123-8.566.49-11.993.98l-6.118.856 2.692-2.692c1.59-1.591 4.895-3.06 7.71-3.427 5.873-.856 6.975-3.059 1.835-3.548-1.958-.245-4.16-.98-4.772-1.591-.612-.612-6.73-.735-13.584-.245l-12.481.734-.857-7.71c-.857-6.852-1.468-8.32-5.507-12.114-2.57-2.447-5.262-5.507-5.996-6.853-1.101-2.202-1.346-2.08-1.713 1.224zm6.363 8.566c4.16 3.06 4.283 3.549 3.794 14.684-.123 3.305-.98 4.161-8.077 7.71-4.283 2.08-8.199 3.426-8.443 2.814-.368-.611-1.102-5.017-1.469-10.034l-.856-8.933 5.384-4.65c2.937-2.57 5.384-4.65 5.507-4.65 0 0 1.835 1.346 4.16 3.059zm-12.849.49c-1.468 1.223-7.954 2.936-7.954 1.957 0-.856 4.895-2.937 7.342-2.937.98-.122 1.224.245.612.98zm33.53 22.516c-4.283 3.916-5.017 4.16-16.887 4.895-6.73.489-12.36.611-12.36.367 0-.49 2.692-1.714 15.297-7.587 2.08-.857 6.975-1.714 11.013-1.714h7.342l-4.405 4.039zm7.465-.98c-.857 1.102-1.836 1.592-2.08 1.347-.857-.857.856-3.182 2.324-3.182.734 0 .734.734-.244 1.836zm-6.853 14.44c.979 5.14.856 6.12-1.346 8.077-1.591 1.468-4.65 2.447-8.444 2.692-5.874.367-5.996.245-5.629-3.06.49-4.282-1.958-11.747-3.794-11.747-.978 0-.856-.49.245-1.101.98-.612 5.385-.979 9.79-.857l8.076.123 1.102 5.874zm-31.082.857c0 .612-.612 1.224-1.347 1.224-.611 0-.856-.612-.49-1.224.368-.734.98-1.224 1.347-1.224.245 0 .49.49.49 1.224zm12.237.734c0 1.714-.368 1.714-1.836.49-.979-.857-1.836-1.713-1.836-1.958 0-.245.857-.49 1.836-.49.979 0 1.836.857 1.836 1.958zm1.223 4.65c0 .368-.49.98-1.223 1.347-.612.367-1.224.122-1.224-.49 0-.734.612-1.346 1.224-1.346.734 0 1.223.245 1.223.49z"/>
    <path class="church" d="M121.396 24.178c-.734 3.794.49 7.71 2.325 7.71 1.469 0 1.714-.857 1.102-3.794-.367-2.08-.735-4.283-.735-4.895 0-1.958-2.202-1.101-2.692.98zM114.788 25.035c-1.223 3.182 0 8.688 1.958 8.688 1.346 0 1.836-1.468 1.958-5.262 0-3.549-.49-5.14-1.59-5.14-.98 0-1.959.735-2.326 1.714zM99.614 37.884c-.612 1.346-1.223 4.038-1.223 5.996 0 1.958-.857 5.63-1.958 8.199l-1.836 4.528-2.937-2.693c-1.713-1.59-3.304-3.793-3.671-4.894-.49-1.591-2.08-2.08-5.507-2.08-2.814 0-5.262.489-5.629.978-.367.612-2.08 1.102-3.916 1.102-6.73.122-13.95 12.237-9.422 15.908 2.692 2.202 4.65-.49 3.793-5.262-.49-2.448-.122-3.304 1.224-3.304.979 0 2.08-.734 2.447-1.713.368-.98 1.591-1.469 2.815-1.102 1.101.245 2.815-.244 3.549-1.223 2.202-2.57 7.587-1.102 9.79 2.814 1.1 1.836 3.059 3.794 4.405 4.405 1.346.612 2.57 1.836 2.937 2.57.367 1.224-1.958 1.591-8.811 1.591-5.384 0-9.3.49-9.3 1.224 0 1.346.367 1.346 13.338 1.468 5.996.123 9.3-.367 9.668-1.223.244-.857-.49-1.469-1.591-1.469-1.469 0-1.836-.612-1.102-2.814 2.325-7.343 4.039-14.807 3.427-15.786-.367-.49 0-1.958.612-3.06 1.1-1.835 1.223-1.468 1.346 1.836 0 5.996 3.548 17.377 5.384 17.377 1.224 0 1.101-2.08-.612-9.545-1.224-5.14-2.57-10.891-2.937-12.85-.734-3.915-2.447-4.282-4.283-.978zM74.528 39.23c-.367.612-1.713 1.224-3.06 1.224-2.08 0-4.404 3.304-3.18 4.527.856.98 9.3-2.202 9.3-3.426 0-.612 2.447-1.101 5.506-1.101 3.06 0 5.507-.612 5.507-1.224 0-.734-2.937-1.224-6.608-1.224s-7.098.49-7.465 1.224zM44.792 47.918c-1.224 1.958-2.325 2.325-4.772 1.713-2.203-.49-4.406.123-7.832 2.448-2.692 1.713-4.773 3.549-4.773 4.283 0 2.57 2.448 2.325 5.385-.612 2.202-2.203 4.405-3.06 7.587-3.06 2.692 0 5.629-.856 6.975-2.202 1.224-1.101 3.793-2.08 5.629-2.08 5.629 0 4.65-2.448-1.101-2.815-4.528-.245-5.752.123-7.098 2.325zM152.234 52.568c0 1.469.734 2.57 1.958 2.57 1.101 0 1.713-.856 1.468-2.08-.612-3.06-3.426-3.427-3.426-.49zM23.132 66.152c-.367.734-2.325.978-4.16.611-5.874-.979-8.689 5.385-6.119 13.828.49 1.713-.734 2.692-6.485 5.018-2.448.856-3.427 2.202-3.427 4.282 0 1.714.612 3.427 1.346 3.916 1.713.98 3.549-1.835 2.692-4.16-.611-1.346 0-1.591 3.182-.857 2.815.612 3.916.367 4.528-1.101.367-1.102 2.08-1.958 3.549-1.958 1.59 0 3.304-.612 3.67-1.224.368-.734 2.57-1.224 4.896-1.224 2.325 0 4.527-.611 5.017-1.346.49-.856 2.692-1.101 5.506-.734 5.385.734 6.486-1.468 2.325-4.405-1.346-.98-2.202-2.448-1.835-3.427.857-2.325-.49-4.038-5.14-6.485-4.405-2.203-8.443-2.57-9.545-.734zm9.3 4.772 2.815 2.203-3.549 3.304c-2.325 2.08-4.283 2.937-5.751 2.447-1.469-.367-3.304.122-4.65 1.346-2.08 1.958-2.325 1.836-4.406-1.224-1.59-2.57-1.835-3.793-.734-6.118 1.469-3.182 3.304-3.916 4.528-1.836 1.224 1.836 4.283 1.469 4.283-.611 0-2.57 4.038-2.326 7.465.489zM188.945 66.763c0 1.346 1.346 1.836 4.405 1.836 3.794 0 4.283-.245 2.937-1.836-.856-.979-2.814-1.835-4.405-1.835-1.836 0-2.937.734-2.937 1.835zM60.456 68.232c-13.584.367-17.132 1.101-17.132 3.181 0 1.102 3.548 1.224 14.929.612 8.321-.367 15.419-.856 16.03-.856.49-.123.857-.98.857-1.958 0-.98-.734-1.713-1.468-1.591-.857.122-6.853.367-13.216.612zM122.498 78.022c-1.224 1.223-.98 5.261.244 5.261.612 0 1.346-.611 1.591-1.468.367-.857 1.102-.979 2.325-.367 2.08 1.346 15.786 1.835 15.786.612 0-1.836-6.118-3.916-9.667-3.304-2.08.49-4.038.244-4.406-.367-.856-1.346-4.65-1.591-5.873-.367z" />
  </g>
</svg>