
<svg version="1.0" xmlns="http://www.w3.org/2000/svg"

 viewBox="0 0 1024.000000 253.000000"
 preserveAspectRatio="xMidYMid meet" class="animated-svg">

  <g fill="transparent">
    <path d="M910.6 16.3c-1.5 1.1-1.7 1.7-.7 3.5 1.5 2.7 3.1 2.8 3.1.2 0-1.5.7-2 2.4-2 1.6 0 2.7.7 3.1 2 .7 2.2 3.8 2.6 8 1 1.8-.7 3.9-.7 6.2-.1 2 .6 4.4.6 5.7.1 1.4-.5 4.5-.3 8.2.5 3.2.7 8.2 1.5 11.1 1.8 4.6.5 5.4.3 7.8-2.1 2.3-2.3 2.9-2.4 4.7-1.3 1.3.8 6.1 1.4 12.2 1.6 5.6.1 10.9.6 11.8 1 1.6.6 7.8-3 7.8-4.6 0-1.2-3.2-2-4.4-1-.7.6-1.7.6-2.6.1-1.6-1-5.7-.3-7.6 1.2-.7.5-2.9.5-5.3-.1-2.3-.5-5-.7-6.1-.4-1 .3-2.9-.2-4.2-1.1-3.1-2.2-4.5-2-7.4 1.1l-2.4 2.6-9.3-1.2c-11.3-1.6-24.6-2-25.3-.9-1 1.6-5.3.8-6.4-1.2-1.3-2.4-7.6-2.8-10.4-.7zM890 17.2c-1.9.5-4 1.4-4.5 1.8-.6.5-2.6.8-4.4.8-1.8-.1-3.6.3-3.9.9-.8 1.2-12.2.9-17.4-.5-3.9-1-8.5-.6-10.6 1.1-.8.6-3.2 1-5.5.9-2.3-.2-5.5.4-7 1.2-1.5.8-3.4 1.3-4.3.9-.8-.3-2.2.1-3.2.9-1.3 1.2-4 1.5-11.2 1.3-8.8-.2-9.7-.1-11.7 2.1-1.4 1.5-3.4 2.4-5.5 2.5-8.5.2-9.3.4-9.6 2.3-.5 2.5 1.3 4.2 3 2.9.7-.6 3.6-1.4 6.3-1.8 2.8-.4 5.8-1.5 6.9-2.4 1-.9 2.8-1.7 4-1.8 1.1-.1 3.6-.5 5.4-.9 2.1-.4 4.3-.1 5.9.7 2.1 1.1 2.9 1.1 5.5-.4 1.6-.9 3.8-1.7 4.9-1.7 1.1 0 3.4-.7 5-1.6 2.2-1.1 4.3-1.3 7-.9 2.5.4 4.5.3 5.4-.5 1.6-1.3 4.8-1.5 17.3-.6 7.7.5 9.4.3 9.8-.9.4-1 2-1.5 4.4-1.5 2.1 0 5.1-.7 6.6-1.5 3.2-1.7 7.4-2 7.4-.6 0 .5 1.5 2.6 3.4 4.5 3 3.2 3.5 3.4 4.7 2 1.1-1.3.7-2-2.5-5-3.3-3.1-7-5.5-7.8-5.3-.2 0-1.9.5-3.8 1.1zM780.5 32.1c-2.6 1.7-4 1.9-9.7 1.4-4.4-.4-6.8-.2-7.3.5-1.3 2.2-6.1 3.3-15 3.6-15.4.5-17.2.8-19.7 3-1.8 1.8-2.8 2-4.8 1.2-1.4-.5-3.4-.7-4.5-.4-1.1.3-3.3.1-5-.3-1.6-.5-5.2-1.4-7.9-2-4.5-1.1-5.1-1-7.2 1-1.3 1.3-2.4 2.6-2.4 3.1 0 1.3 2.7.9 3.3-.6.7-1.7 9.9-1 14.1 1.1 1.5.8 3.9 1.2 5.1.9 1.3-.3 3.5-.2 5 .4 2.1.8 3.1.6 5.3-1 3.7-2.7 6.9-3.2 20.7-3.7 11.3-.3 12.1-.5 14-2.7 1.6-2 2.4-2.3 3.8-1.5 2.3 1.3 11.4.2 14.5-1.7 1.2-.8 2.3-1.2 2.3-.9.1.3.3.9.4 1.5.1.5.3 1.4.4 2 0 .5.8 1 1.7 1 1.2 0 1.5-.6 1-2.3-.3-1.2-.6-3-.6-4 0-2.4-3.7-2.2-7.5.4zM607.5 41.2c-2.2.5-5.6 1.8-7.6 2.8-2 1.1-5 2.2-6.7 2.5-1.6.2-6.1 2-9.9 3.9-6.4 3.2-7.4 3.4-10.7 2.4-2-.6-3.6-1.5-3.6-1.9 0-1.1-7.9-4.9-10-4.9-.9 0-2.1.5-2.7 1.1-.7.7-1.7.8-2.9.1-1.1-.5-5.1-1.2-9-1.6-7.2-.7-12 .4-13.7 3.1-1 1.6-3.8 1.7-7.1.2-2.1-1-3.1-.8-6.1 1-3.8 2.2-8.5 2.8-8.5 1 0-.6-2.1-.9-5.7-.6-4.2.3-6.1 1-7.4 2.6-1.3 1.6-2.4 1.9-4.6 1.5-1.5-.3-4.8.2-7.2 1-4.1 1.5-4.5 1.5-7.1-.4-3.3-2.4-5.9-2.5-8.6-.5-1 .8-2.7 1.5-3.7 1.5s-3 .9-4.5 2c-2.8 2-8.9 2.8-13.3 1.6-1.7-.5-3-.3-3.4.4-.4.6-1.9.9-3.3.6-2-.4-3.6.2-6.2 2.4-2.2 1.9-2.9 3-1.9 3 .8 0 2-.5 2.7-1.2 1.2-1.2 6.9-1.9 15.2-1.8 5.8 0 10.2-.8 11.8-2.4 1-.9 2.8-1.6 3.9-1.6s2.6-.7 3.3-1.5c1.7-2.1 4.3-1.9 7 .5 2.8 2.4 3.2 2.4 7.2.4 2-1.1 4.5-1.4 7-1.1 3.1.4 4.4 0 6.9-2 1.6-1.4 3.2-2.3 3.5-2 .4.3 1.7.1 3.1-.4 1.9-.7 3-.6 4.2.4 2.8 2.5 4.5 2.5 8.6.2 3.4-1.9 4.9-2.1 9.8-1.6 6.3.8 6.9.6 8.6-2.7 1.2-2.2 1.7-2.3 6.4-1.7 2.9.4 6.9 1.1 9 1.6 2.5.7 4.9.7 6.7.1 3.5-1.3 9.5 1.9 8.8 4.6-.4 1.5.4 1.7 6.6 1.7 6.1-.1 8.1-.6 14.6-3.8 4.1-2 8.2-3.7 9.1-3.7 1 0 3-.6 4.6-1.4 7.7-3.8 16.4-4.7 19.4-2 1.3 1.2 4.4 1.7 12.1 1.9 5.7.2 11.7.7 13.4 1 2.1.5 3.4.2 4.3-.9.9-1 2.2-1.4 3.7-1 3.4.9 11.6-.5 11.2-1.8-.5-1.5-14.3-1.5-16 0-.8.6-4.5.8-9.3.5-4.4-.2-9.9-.4-12.2-.4-3.3.1-4.6-.4-5.5-1.9-1.4-2.2-7-2.5-14.3-.8zM669.9 42.7c-1.2 1.5-1.2 1.6.8 1.1 1.3-.4 2.7 0 3.4.8 1.4 1.6 16 1.5 16.6-.2.5-1.6-7.4-2.5-10.6-1.3-2 .8-2.8.7-3.7-.5-1.5-2.1-4.8-2-6.5.1zM413.9 63.1c-.8.5-4.2.9-7.5.9-4.2 0-6.5.5-7.4 1.5-.7.8-1.9 1.5-2.6 1.5-.8 0-1.4.4-1.4 1 0 1.3 3.3 1.3 4.6 0 1.2-1.2 14.5-1.5 22.4-.6 5.5.7 8.8-.3 7.6-2.2-.3-.6-2.3-.8-4.5-.5-2.4.3-5 0-6.9-1-1.8-.9-3.5-1.1-4.3-.6zM386.9 66.9c-1.9.4-4.6 1.5-5.9 2.4-3 2.1-5.4 2.2-7 .2-1.7-2.1-5.6-1.9-8.8.5-2.8 2-7.9 3.4-19.2 5.1-3.6.5-7.6 1.8-9 2.8-4.2 3-7.6 3.6-20.9 4-1.4.1-3.4.7-4.6 1.5-2.7 1.8-5.4 2.1-7.8 1.1-2.5-1-9.2 1.1-14.2 4.5-3 2-5.1 2.7-8.3 2.6-3.5 0-4.8.5-7.2 2.9-4.7 4.8-5.6 5.4-10.7 6.6-2.6.7-5.4 1.7-6.2 2.3-.8.6-4.1 1.3-7.5 1.6-5.3.4-6.2.8-7.3 3.1-1.5 3.1-11.6 7.9-16.6 7.9-2.1 0-5.4 1.4-9.2 4-3.3 2.2-7.2 4-8.6 4-1.5 0-3.2.6-3.8 1.4-1.8 2.1-12.4 4.1-14.9 2.7-1.2-.7-4.4-.8-8-.5-3.9.4-6.2.3-6.6-.5-1.1-1.8-4-1.3-5.4 1-.9 1.4-1.9 1.8-3.3 1.4-2.2-.7-6.7-1.3-14.2-1.9-3.5-.2-6.3-1.4-10.5-4.2-7.6-5.2-8.3-5.4-11-3.3-1.8 1.4-2.9 1.6-4.8.8-1.4-.5-3.6-.9-5-.9-1.9 0-2.8-.8-3.5-3-1-2.8-1.5-3-5.8-3-3.8 0-4.8-.4-5.6-2.3-.8-1.8-2.1-2.3-7-2.8-6.9-.7-12.5-2.8-12.5-4.6 0-.7-.6-1.3-1.2-1.3-.7 0-2.6-.7-4.2-1.5s-3.9-1.2-5.2-.9c-1.5.4-3.1.1-4.2-.8-.9-.9-3-1.8-4.6-2.2-1.6-.4-4.3-2.2-6.1-4-1.8-1.9-4.9-4-7-4.7-2-.8-4.1-2.2-4.6-3.1-1.3-2.3-2.4-2.3-4.7.2l-1.9 2.1-3.8-2.3c-2.1-1.2-3.3-2.4-2.7-2.6 1.4-.4 1.6-3.8.2-4.7-.5-.3-3.3-.7-6.3-.9-2.9-.1-5.9-.6-6.7-1.1-.8-.5-1.8-.1-2.7 1.1-1 1.4-1.7 1.6-3 .8-2.6-1.7-2.9-3.7-.4-2.9 2.6.8 2.7 0 .2-2.6-1.6-1.7-2.2-1.8-4.4-.8-1.8.8-2.6 1.9-2.4 3.3.2 1.8-.4 2.2-3.6 2.4-6.4.5-4.5 2.8 2.8 3.5 3.6.4 7 .9 7.5 1.2 1.5.9 1.2 9.1-.4 10.4-1.6 1.3-2.7 6.1-1.5 6.1.5 0 .9-.4.9-.9 0-.9 9.1-.7 17 .4 7.8 1.1 11.7.5 10.5-1.6-.4-.5-.2-.9.4-.9 1.6 0 1.7-4.4.1-5.7-1.3-1.1-1.2-1.2.7-1.3 1.2 0 2.5.4 2.8 1 .3.5 2.6 1.8 5.1 2.9 2.4 1.1 4.7 2.7 5 3.5.7 1.7 6.8 5.6 8.8 5.6.8 0 1.9.7 2.6 1.5.7.9 2.9 1.5 5.5 1.5 2.7 0 5.1.7 6.7 1.9C84.3 109.3 95 113 99 113c2 0 3 .5 3 1.5 0 1.9 3.1 3.5 7 3.5 2.3 0 3.3.6 3.9 2.3.7 1.8 2.3 2.7 7.7 4 6.2 1.5 7.1 1.5 10 .1 3.3-1.6 3.4-1.5 9.1 2.4 5.4 3.7 6.5 4 14.6 4.7 4.9.3 10 1 11.4 1.6 1.9.7 3 .5 5-1 1.8-1.5 3-1.8 4.8-1.1 5.3 2 29.2-.1 30.2-2.7.3-.7 2-1.3 3.7-1.3 2.2 0 5-1.3 8.7-4.1 3.5-2.6 6.1-3.8 7.4-3.5 1 .3 3.7-.3 6-1.3 2.2-1 6.2-2.8 8.9-4 2.8-1.3 5-3 5.3-4.1.4-1.6 1.4-2 5.2-2 2.9 0 5.7-.7 7.6-2 1.7-1.1 4.1-2 5.4-2 3.1 0 12.1-5 12.1-6.7 0-.7.8-1.3 1.8-1.3s2.2-.3 2.5-.6c.4-.4 1.9-.8 3.4-.9 1.6-.1 5.2-1.8 8.2-3.6 4.5-2.8 6.3-3.4 10.4-3.2 2.7.1 6.6-.5 8.6-1.3 2.1-.9 6.8-1.6 11.4-1.6 4.3-.1 8-.5 8.3-1 .3-.4 2-.8 3.8-.8 2.5 0 3.5-.5 3.9-1.9.3-1.4 1.7-2 5.8-2.5 7.2-.9 21-4.7 23-6.3 2-1.7 3.4-1.6 4.8 0 1.2 1.5 8.1.9 11.6-1 1.1-.6 3.7-1.5 5.8-2 2.1-.4 3.8-1.3 3.8-1.8 0-1.3-1.7-1.5-6.2-.6zM26.7 84.5c2.1.4 4.9 1.5 6.4 2.6 1.5 1 3.2 1.9 3.7 1.9 1.3 0 5.6 5.9 4.9 6.7-.3.3-3.2 0-6.4-.7s-7.7-1.2-9.9-1.2l-4.2.1-.5-5.7c-.5-6.1.1-8.4 1.4-5.9.5.8 2.6 1.8 4.6 2.2zM538.6 82.9c-1 1.1-1.7 2.8-1.6 3.8.4 3.8-.1 5.2-3.1 8.2-1.7 1.8-2.9 3.8-2.7 4.8.4 1.5 1.3.9 4.6-2.6 3.7-3.9 4.2-5 4.2-9.3 0-2.6.5-4.8 1-4.8.6 0 1-.5 1-1 0-1.6-1.5-1.2-3.4.9zM547.2 84.9c-.9.5-1.1 1.7-.6 3.6.5 1.9.2 3.2-.7 3.9-.8.6-2.3 2.2-3.4 3.4-1.5 1.9-1.7 2.5-.6 3.2 1 .5 0 1.4-3.3 2.8-2.5 1.2-4.6 2.6-4.6 3.2 0 .8.6.7 2.1-.1 1.2-.6 3.5-1.2 5.3-1.2 2.5-.2 3.1-.6 2.9-2.4-.1-1.1.4-2.7 1.2-3.3.8-.7 1.5-1.8 1.5-2.5s.7-1.6 1.6-1.9c1.2-.4 1.4-1.4.9-3.6-.4-1.9-.2-3.6.5-4.5 1-1.2 1-1.5-.1-1.5-.8 0-2 .4-2.7.9zM348.1 95.6c-1.6 1.2-2 1.9-1.2 2.7.7.7 1.6.6 2.9-.6 1-.9 2.8-1.7 4-1.7 1.2 0 2.2-.5 2.2-1 0-1.6-5.3-1.2-7.9.6z" class="svg-animated__forest" style="stroke-dashoffset: 2372.96px; stroke-dasharray: 2372.96px; animation-delay: 0s;"></path>
    <path d="M494.8 96.5c-.3 2.7-.8 3.1-5.3 4-9.1 1.9-12.2 5.3-10.9 12.1.9 4.9 2.7 4.3 1.9-.6l-.7-4h7.2v8.7c.1 10.9.9 12.3 7.6 12.4l4.9.1-4 .9c-9.3 2.1-8.6 1.6-7.9 5.5.5 2.9.2 3.9-1.7 5.7-1.3 1.2-2.7 2.1-3.2 1.9-.5-.1-1.1.7-1.4 1.8-.5 2-3.1 2.6-9.5 2.1-1.6-.1-2.8.3-2.8.8 0 .6-1.3 1.1-2.8 1.1-1.5 0-3.3.5-3.9 1.1-.6.6-5.9 1.2-12.4 1.3-14.3.3-16.9 1.3-16.9 6.1 0 2.4.5 3.5 1.5 3.5.9 0 1.5-.9 1.5-2.3 0-3 4.5-5.4 6.6-3.6 1.1.9 2 .9 3.8-.1 1.3-.7 2.8-1 3.4-.6.5.3 7.4-.6 15.3-1.9 7.9-1.4 14.9-2.3 15.6-2 .8.2 1.6-.2 1.9-1 .4-.8 1.3-1.5 2-1.5.8 0 1.9-1.1 2.4-2.5s1.4-2.5 1.9-2.5 1.2-.9 1.6-1.9c.8-2.7 7.8-2.4 8.3.3.2 1.1 1.7 3 3.3 4.3 1.6 1.4 2.7 2.9 2.3 3.4-.3.5.2.9 1 .9 1 0 1.6-.9 1.6-2.5 0-2.4.2-2.5 7-2.5 6.3 0 7 .2 7.1 2 .3 3.9.4 4.3 1.7 4.7.8.3 1.2-.8 1.2-3.6v-4l8.5.5c7 .5 8.5.3 8.5-.9 0-2-2-2.3-11.7-2.3l-8.1.1-.6-2.9c-1-4.9-.7-9.6.7-9.7.6 0 2.2-.2 3.4-.5 2-.3 2.2.1 2.5 4.4.2 3.4.7 4.7 1.8 4.7.8 0 1.4-.5 1.4-1-.1-.6-.4-2.9-.8-5.1-.6-4.1-.6-4.1 3-4.7 5.5-.9 6.3-.2 6.6 6.4.2 3.3.7 5.8 1.3 5.7.6-.2.9-2.8.6-6.1-.3-5.1-.1-5.7 1.6-5.7 3.2 0 4.3 2.1 4.3 8.2 0 4.7.3 5.8 1.6 5.8 1.4 0 1.6-.8 1-4.6-.3-2.6-.6-5.7-.6-7 0-1.6-1.6-3.6-5.1-6.4-4.8-3.8-7.9-5-7.9-3.2 0 .5 1.1 1.5 2.5 2.2 3.6 1.9 3.1 2.5-2.2 2.6-2.7.1-7 .4-9.8.8l-5 .7 2.2-2.2c1.3-1.3 4-2.5 6.3-2.8 4.8-.7 5.7-2.5 1.5-2.9-1.6-.2-3.4-.8-3.9-1.3s-5.5-.6-11.1-.2l-10.2.6-.7-6.3c-.7-5.6-1.2-6.8-4.5-9.9-2.1-2-4.3-4.5-4.9-5.6-.9-1.8-1.1-1.7-1.4 1zm5.2 7c3.4 2.5 3.5 2.9 3.1 12-.1 2.7-.8 3.4-6.6 6.3-3.5 1.7-6.7 2.8-6.9 2.3-.3-.5-.9-4.1-1.2-8.2l-.7-7.3 4.4-3.8c2.4-2.1 4.4-3.8 4.5-3.8 0 0 1.5 1.1 3.4 2.5zm-10.5.4c-1.2 1-6.5 2.4-6.5 1.6 0-.7 4-2.4 6-2.4.8-.1 1 .2.5.8zm27.4 18.4c-3.5 3.2-4.1 3.4-13.8 4-5.5.4-10.1.5-10.1.3 0-.4 2.2-1.4 12.5-6.2 1.7-.7 5.7-1.4 9-1.4h6l-3.6 3.3zm6.1-.8c-.7.9-1.5 1.3-1.7 1.1-.7-.7.7-2.6 1.9-2.6.6 0 .6.6-.2 1.5zm-5.6 11.8c.8 4.2.7 5-1.1 6.6-1.3 1.2-3.8 2-6.9 2.2-4.8.3-4.9.2-4.6-2.5.4-3.5-1.6-9.6-3.1-9.6-.8 0-.7-.4.2-.9.8-.5 4.4-.8 8-.7l6.6.1.9 4.8zm-25.4.7c0 .5-.5 1-1.1 1-.5 0-.7-.5-.4-1 .3-.6.8-1 1.1-1 .2 0 .4.4.4 1zm10 .6c0 1.4-.3 1.4-1.5.4-.8-.7-1.5-1.4-1.5-1.6 0-.2.7-.4 1.5-.4s1.5.7 1.5 1.6zm1 3.8c0 .3-.4.8-1 1.1-.5.3-1 .1-1-.4 0-.6.5-1.1 1-1.1.6 0 1 .2 1 .4z" class="svg-animated__church" style="stroke-dashoffset: 757.42px; stroke-dasharray: 757.42px; animation-delay: 0.2s;"></path>
    <path d="M496.8 108.7c-.6 3.1.4 6.3 1.9 6.3 1.2 0 1.4-.7.9-3.1-.3-1.7-.6-3.5-.6-4 0-1.6-1.8-.9-2.2.8zM491.4 109.4c-1 2.6 0 7.1 1.6 7.1 1.1 0 1.5-1.2 1.6-4.3 0-2.9-.4-4.2-1.3-4.2-.8 0-1.6.6-1.9 1.4z" class="svg-animated__church" style="stroke-dashoffset: 38.932px; stroke-dasharray: 38.932px; animation-delay: 0.4s;"></path>
    <path d="M352.4 100.5c-1.2.9-3.1 1.2-4.9.9-2.8-.5-3.4-.1-6.3 4.4-4.9 7.6-6.5 11.9-5.2 14.2 1.6 3 4.4 2.6 3.6-.4-.7-2.9.6-6.8 4.1-11.9 2.1-3 3.2-3.7 5.9-3.7 1.8 0 3.6-.5 3.9-1 .3-.6 1.5-1 2.6-1 2.3 0 2.5-1.5.3-2.4-2-.8-1.7-.8-4 .9zM918.5 100c-.9 1.5.3 2.6 3.7 3.4 2.8.6 4.7-.9 3.2-2.4-1.6-1.6-6.2-2.2-6.9-1zM836.2 105.2c.3.7 2.2 1.7 4.3 2.2 4.3 1 9.7 6.2 9.1 8.8-.2 1 .2 2.2.9 2.8 1 .9 1.6.6 2.4-.9 1.7-3.1 1.3-4.9-1.3-6.6-1.3-.9-2.6-2.4-2.9-3.5-.3-1.1-2-2.3-4.3-2.9-5.2-1.5-8.7-1.4-8.2.1zM865.1 105.8c-.9 1.8-.6 2 2.9 2.6 4.1.6 9-.6 9-2.4 0-.5-1.5-1-3.2-1-1.8 0-4.3-.3-5.5-.6-1.5-.4-2.4 0-3.2 1.4zM663.7 106.1c-.9.6-1.7 1.7-1.7 2.6 0 1.3.3 1.4 1.1.6.6-.6 1.7-.9 2.4-.7 1.8.7 2.7-1.2 1.2-2.4-.8-.7-1.8-.7-3-.1zM830.2 105.8c-1.3.2-2.6 1-2.9 1.8-.3.8-1.1 1.4-1.9 1.4-.7 0-2.1 1.1-3 2.5-1.7 2.5-1.3 5.5.6 5.5.6 0 .9-.4.6-.9-1.2-1.9.6-4.1 3.2-3.9 1.6.2 2.7-.2 2.8-1 .1-.6.2-1.7.3-2.2 0-.6 1.2-1 2.6-1 2.6 0 3.4-1.5 1.3-2.2-.7-.2-2.3-.2-3.6 0zM741.3 117.2c-1 1.8 1.1 2.3 10.6 2.6 11.8.4 21.1-.6 21.1-2.2 0-1.3-30.9-1.6-31.7-.4zM628.6 117.9c-.3.4-1.6.6-2.9.4-1.4-.3-2.9.2-3.7 1.1-1.7 2.1-.4 3.4 1.9 1.9 1.1-.7 2.2-.8 2.8-.2.9.9 8.2-2 8.3-3.4 0-1-5.8-.9-6.4.2zM812 117.7c-1.3.3-3.3 1.1-4.4 1.9-1.1.8-2.8 1.4-3.7 1.4-.9 0-2 .7-2.3 1.6-.9 2.2-.2 2.7 2.1 1.6 1-.6 4.4-1.8 7.6-2.7 5-1.5 6.5-1.5 10.4-.5 2.5.7 5.4 2.2 6.4 3.4 1.5 1.5 2.2 1.7 3.1.8 1.8-1.8-1.7-5-7.5-6.7-5.1-1.5-7-1.6-11.7-.8zM965 118.2c0 1.6 1.9 3.8 3.3 3.8.4 0 .7-1 .5-2.2-.3-2.5-3.8-3.9-3.8-1.6zM479 119.9c-.5 1.1-1 3.3-1 4.9 0 1.6-.7 4.6-1.6 6.7l-1.5 3.7-2.4-2.2c-1.4-1.3-2.7-3.1-3-4-.4-1.3-1.7-1.7-4.5-1.7-2.3 0-4.3.4-4.6.8-.3.5-1.7.9-3.2.9-5.5.1-11.4 10-7.7 13 2.2 1.8 3.8-.4 3.1-4.3-.4-2-.1-2.7 1-2.7.8 0 1.7-.6 2-1.4.3-.8 1.3-1.2 2.3-.9.9.2 2.3-.2 2.9-1 1.8-2.1 6.2-.9 8 2.3.9 1.5 2.5 3.1 3.6 3.6s2.1 1.5 2.4 2.1c.3 1-1.6 1.3-7.2 1.3-4.4 0-7.6.4-7.6 1 0 1.1.3 1.1 10.9 1.2 4.9.1 7.6-.3 7.9-1 .2-.7-.4-1.2-1.3-1.2-1.2 0-1.5-.5-.9-2.3 1.9-6 3.3-12.1 2.8-12.9-.3-.4 0-1.6.5-2.5.9-1.5 1-1.2 1.1 1.5 0 4.9 2.9 14.2 4.4 14.2 1 0 .9-1.7-.5-7.8-1-4.2-2.1-8.9-2.4-10.5-.6-3.2-2-3.5-3.5-.8zM19.5 122.9l.7 4.2-5.1-.7c-2.8-.4-5.1-.3-5.1.2.1 1.3 6.9 4.1 11.8 4.8 3.7.6 4.2.4 4.2-1.4 0-1.1-.4-2-.9-2s-1.6-1.9-2.3-4.2c-2-5.8-4.3-6.4-3.3-.9zM921.8 120.1c-2.5 1.4-2.2 2.9.5 2.7 1.2-.1 3.9.9 6 2.1 3.5 2 5.7 2.1 5.7.2 0-1-7.9-6.1-9.3-6.1-.7 0-2 .5-2.9 1.1zM458.5 121c-.3.5-1.4 1-2.5 1-1.7 0-3.6 2.7-2.6 3.7.7.8 7.6-1.8 7.6-2.8 0-.5 2-.9 4.5-.9s4.5-.5 4.5-1c0-.6-2.4-1-5.4-1-3 0-5.8.4-6.1 1zM955 122.3c0 1.7 3.6 3.6 7.5 3.8 4.5.2 5.5 0 5.5-1.1 0-1.4-3-2.7-8.2-3.4-3.8-.6-4.8-.4-4.8.7z" class="svg-animated__forest" style="stroke-dashoffset: 750.697px; stroke-dasharray: 750.697px; animation-delay: 0.6s;"></path>
    <path d="M869 123.8c-1.4 1-3.9 2.3-5.7 2.6-3.9.9-6.3 3.3-4 4.2.9.3 2.4.1 3.5-.5 1.7-.9 1.9-.8 1.5.8-.4 1.7-1.9 1.9-16.1 2.3-14.3.5-15.9.3-17.8-1.4-2.6-2.3-3.4-2.3-3.4.3 0 1.7-.4 2-2.3 1.5-4.5-1.1-16.1 7.4-14.2 10.4.4.6.8 3.9.9 7.5.3 5.4.1 6.3-1 5.4-1.9-1.6-3.4-.2-3.4 3.2 0 3.5-3.1 6.9-5.8 6.2-1-.2-3.9.5-6.3 1.6s-7.1 3.1-10.4 4.4c-5.7 2.4-6 2.7-6.3 6.3-.4 4.6.5 8.4 1.9 8.4.8 0 .9-1.5.5-4.4-.7-4.2-.5-4.5 2.6-6.4 1.8-1.1 6.1-3.2 9.6-4.6 5.7-2.3 6.8-2.4 11.5-1.4 2.9.5 7.7 2.2 10.7 3.7 5 2.4 5.5 2.9 5.8 6.3l.3 3.6-4.1-1c-2.2-.6-4.3-.8-4.7-.5-.9.9 1.7 3.7 3.4 3.7.7 0 1.6.7 2 1.6.3.8 2.3 2.2 4.4 3 3.5 1.5 3.7 1.8 3.2 5-.4 2.6-.2 3.4 1 3.4 1.6 0 2.8-4.1 2-7.1-.3-1.1-1.6-2.2-2.9-2.5-3.3-.8-4.9-3-2.8-3.8 1.1-.4 1.4-1.3 1.1-2.7-.8-3.1.2-5.1 2.3-4.4 1 .3 4.5-.1 7.7-.9 6.3-1.6 14.3-1.9 14.3-.5 0 .5-.4.9-1 .9-.5 0-1 .6-1 1.4 0 .8-.7 1.6-1.5 2-.8.3-1.5 1.2-1.5 1.9 0 1.9-4.7 2.8-10.9 2-3.3-.4-5.1-.2-5.1.5 0 1.2 1.5 1.7 7.3 2.8 2 .3 4 1 4.3 1.5.7 1.1-1.7 1.1-3.5 0-1.7-1.1-5.3-.2-4.8 1.3.2.6 1.1 1 2.1.8 1.1-.2 1.6.4 1.6 2.2 0 3 3 9.6 4.3 9.6.5 0 .6-1 .3-2.3-2.1-7.3-2.1-7.7 1.2-7.7 3.6 0 4.9-1.5 3.2-3.5-1.3-1.5-.6-3.5 1.2-3.5 1.3 0 5.8-4.7 5.8-6.1 0-.5 2.3-.8 5.5-.5 4.3.4 5.5.1 5.5-1 0-.8-.4-1.4-.9-1.4-.6 0-2.2-1.2-3.8-2.6-2.1-1.9-3.4-2.4-5.8-2-1.6.3-8 .8-14.2 1.2l-11.1.7-9.4-3.8c-5.1-2.1-9.4-3.9-9.6-4-.2-.2 11.4-.1 25.7.2 23.7.6 26.1.5 26.1-1s-2.1-1.7-18.2-1.7c-10.1-.1-19.6-.2-21.3-.4-1.6-.2-4.7-.4-6.8-.4-2.6-.1-3.7-.6-3.4-1.5.2-.6 1.1-1.2 2-1.2.9 0 2.2-.6 2.9-1.3.6-.6 1.8-1.2 2.5-1.2s1.3-.4 1.3-.8c0-1.2 11.4-3.2 14-2.5 1.8.5 2.1.2 1.8-1.8-.2-1.9-.9-2.4-3-2.4-2.4.1-2.7-.4-3.2-4.7l-.7-4.8h-5.4c-3 0-5.5-.4-5.5-.8 0-.5 1.6-1.6 3.6-2.5 3.5-1.7 3.6-1.7 5.5.7 1.8 2.3 2.8 2.5 10.7 2.8l8.7.3.3 5.2c.2 3.6.7 5.3 1.6 5.3 1 0 1.3-1.5 1.2-5.3l-.1-5.2h14.4c11.4 0 14.5.3 14.9 1.4.3 1-.2 1.2-2.2.7-2.2-.5-2.6-.3-2.6 1.4 0 1.1.5 2 1 2 1.6 0 1.2 3.7-.5 4.4-1.1.4-1.4 1.3-.9 3.1.6 2.5.5 2.5-3.2 1.9-4.2-.6-14.6 1.6-19.7 4.3-4.5 2.3-2.4 2.7 5 1 11.9-2.8 14.1-2.6 15.4 1.3 1.2 3.4 2.9 4 2.9 1 0-1.2.7-2 1.6-2 1.3 0 1.5-.7 1.1-3.4-.3-2.1 0-4.1.9-5.4.8-1.2 1.3-2.7 1.2-3.4-.2-.7.3-1.2 1-1 .7.1 1.5-1.1 1.8-2.8.4-1.6 1.1-2.8 1.7-2.7.6.1 1.2-.3 1.2-.8.1-.6.5-1.8 1-2.8.7-1.7.8-1.7 2 0 1.5 2 2 1.8 2.9-1.2.8-2.9-.8-5.2-2.7-3.7-1.1 1-2.1 1-4.1.1-1.4-.7-2.6-1.6-2.6-2.1 0-.4-1.6-.8-3.5-.8-4.8 0-4.4-1.7 1.1-4 9.1-3.9 22.9-1.5 25.6 4.5 1.5 3.3 2.8 3.2 2.8-.3 0-3-2.6-6.2-5.1-6.2-.8 0-2.9-.9-4.8-2.1-2.5-1.5-5.7-2.1-13-2.6-8.6-.5-9.9-.3-12.1 1.5zm2 3.7c-3 1.7-4 1.8-4 .6 0-.8 2.2-1.6 5.5-1.9.6-.1-.1.5-1.5 1.3zm-33.2 9.7c2.2 1.8 1.3 2.5-3.4 2.7-2.6 0-5 .4-5.5.6-.4.3-1.3-.3-1.8-1.4-1-1.7-.7-2 1.7-2.3 5.2-.7 7.7-.6 9 .4zm39.1.2c1.5 1.8-4.8 2.6-20.1 2.5-10 0-12-.3-14-1.9-2.3-1.9-2.2-1.9 15.4-1.9 13.3 0 17.9.3 18.7 1.3zm-53.5 8.2c3 2.9.7 8.8-3 8.1-1.5-.3-2.8.1-3.3 1.1-1.5 2.6-2.9.3-2.7-4.5.1-5.1-.2-4.8 6.8-6.2.4 0 1.4.6 2.2 1.5zm28.9 31.1c-.7.2-1.9.2-2.5 0-.7-.3-.2-.5 1.2-.5s1.9.2 1.3.5z" class="svg-animated__town" style="stroke-dashoffset: 1078.36px; stroke-dasharray: 1078.36px; animation-delay: '-8s;"></path>
    <path d="M688.5 125c-.3.6-2.1 1-3.8 1-4.7 0-7.7 1-7.7 2.6 0 1.9-2.9 1.8-3.6-.1-.8-2.1-7.1-3-11.1-1.6-5.8 2.1-11.3 6.3-11.3 8.5.1 1.9.2 1.9 1.1.3.5-.9 1.9-1.7 2.9-1.7s2.3-.6 2.7-1.4c1.3-2.2 8-4.8 10.4-4.1 3 1 5.8 4.5 5.9 7.2 0 1.4.6 2.3 1.5 2.3 1.1 0 1.4-.7.9-2.5-.4-1.5-.2-2.5.4-2.5.6 0 1.3-.9 1.7-1.9.4-1.3 1.9-2.2 4.5-2.6 2.2-.4 4.3-1.1 4.6-1.6 1.6-2.7 11.9 2.8 13.6 7.2 1 2.7 2.8 2.3 2.8-.6 0-4.2-13.6-11.6-15.5-8.5zM794.6 127.5c-2.5 2.3-2.7 3-1.7 5.1 1.1 2.5 3.4 3.4 2.5 1-.6-1.5 2.8-5.6 4.7-5.6 1.6 0 .5-2.5-1.2-2.8-.9-.1-2.8.9-4.3 2.3zM434.2 128.1c-1 1.6-1.9 1.9-3.9 1.4-1.8-.4-3.6.1-6.4 2-2.2 1.4-3.9 2.9-3.9 3.5 0 2.1 2 1.9 4.4-.5 1.8-1.8 3.6-2.5 6.2-2.5 2.2 0 4.6-.7 5.7-1.8 1-.9 3.1-1.7 4.6-1.7 4.6 0 3.8-2-.9-2.3-3.7-.2-4.7.1-5.8 1.9z" class="svg-animated__forest" style="stroke-dashoffset: 222.234px; stroke-dasharray: 222.234px; animation-delay: 1.0s;"></path>
    <path d="m950.2 129.7.3 3.8-5 .3c-8.1.4-9.5.9-9.5 3.7 0 2.5-.1 2.5-9.7 2.6-12.9.2-16.3.5-19 1.3-1.8.6-2.3.3-2.3-.9 0-2.4-3.4-1.4-3.8 1.1-.2 1.6.7 2.7 3.3 4.3 3.8 2.2 6.5 2.7 6.5 1.2 0-.5-.6-1.2-1.2-1.4-1-.4-.9-.8.2-1.6 1.9-1.4 25.7-1.5 26.5-.1.4.6-.9 1-3.2 1.1-17.2.5-20.4.7-21 1.3-1.7 1.7 2.5 2.3 12.5 1.9 5.9-.2 12.1-.1 13.9.2l3.2.6.3 7.1c.2 4.8.7 7.3 1.6 7.6.7.2 1.6-.5 1.9-1.6.5-2 1.3-2.1 8.1-1.3 2.9.3.8 2-2.9 2.3-3.3.2-4.4.8-5 2.6-1.1 2.8 1.7 4.4 3.5 2 1.3-1.8 10.6-3.4 10.6-1.9 0 .6 1.8 1.1 4 1.1 4.5 0 5.5-2.1 2-4-2.9-1.6-1.5-3 2.6-2.7 3.9.2 4 .4 1.8 2.8-1.4 1.6-1.4 1.8.5 2.8 1.8 1 .8 1.8-9.2 6.9-8.5 4.4-11.3 6.4-11.5 8-.3 1.7.2 2.2 2 2.2 2.1 0 2.3.5 2.3 4.8.1 2.6.4 8.1.9 12.2.4 4.1.3 7-.1 6.3-1.5-2.2-6-2.3-7.9-.2-1.5 1.7-1.8 1.7-2.8.4-.9-1.3-1.7-1.4-4.6-.4-7.1 2.4-7.7 5.6-.8 4.5 2.9-.5 4-.3 4.4.9.9 2.2 5.1 1.9 5.9-.5.7-2.2 2-2.6 3-1 .3.5 3.1 1 6.1 1 3.5 0 7 .7 9.6 2 2.3 1.1 5.2 2 6.4 2 1.2 0 3 .7 3.9 1.6 2.7 2.7 8.9 3.6 27 3.7l17 .1.3-2.9c.3-2.5.2-2.7-1.1-1.6-.8.6-1.8.8-2.1.3-.3-.5-2.7-.7-5.3-.4-2.6.2-9.4.6-15.1.8-5.6.1-10.7.6-11.2.9-.6.3-1 .1-1-.4 0-.6-.7-1.1-1.5-1.1s-1.5-.6-1.5-1.3c0-1.9-7.2-4.6-10.5-4-1.8.4-3.3-.1-5-1.7-1.6-1.5-3.2-2.1-4.9-1.8-2.1.4-2.5 0-3.2-3.1-.8-4-.8-4-1.7-6.1-.3-.8-.8-3.8-1-6.5-.3-2.8-.8-5.7-1.1-6.6-.8-1.8 6.6-2.3 48.3-3.3 15.5-.4 21.2-1.5 16.6-3.2-1.7-.7-27.2-.1-53 1.2l-12 .6 2.5-2.1c1.4-1.1 2.8-2.1 3.2-2.1.7 0 13.4-6 16.8-7.9 8.2-4.6 10.6-5.1 24.6-5.1 13.5 0 17.3-.7 16-2.8-.9-1.6-32.6-.3-35.1 1.4-2.7 1.9-4.9 1.7-7-.6-1-1.1-1.5-2-1-2 .4 0 .3-.6-.3-1.3-.8-.9.3-1.2 4.9-1.1 3.6 0 6.4-.5 7-1.2.8-1 1.7-1 3.7-.2 3.3 1.2 26.2 1.2 27.5-.1 1.5-1.5-.2-3.1-3.2-3.1-2.6 0-2.9-.4-3.4-4.1-.6-4.3-1.9-5.9-4.9-5.9-1.4 0-1.8.8-1.8 3.4 0 1.9.5 3.8 1 4.1.6.3 1 1.3 1 2.1 0 1.1-1.5 1.4-6.7 1.4-9.6 0-11.7-1.3-12.4-7.5-.6-5.5-1.4-4.5-2.4 2.7-.3 2.7-1.2 4.8-1.8 4.9-9.2.9-9.4.7-9.8-7-.3-4.9-.1-5.5 2.1-6.3 1.3-.5 4.7-.8 7.5-.7 2.7.1 11.4-.1 19.3-.6 16.4-.9 17.1-1.5 9.6-7.8l-4.5-3.7h-14.4c-10.6 0-14.6.3-15.2 1.3-1.9 3.1-6.5 4.7-14.8 5.3-9.5.8-10.5.3-10.5-4.9 0-2-.5-2.7-2-2.7-1.8 0-2 .6-1.8 3.7zm60.3 3c1.1.6 1.7 1.5 1.3 1.8-.4.4-8.9.9-18.9 1.2-13.6.5-18 .3-17.5-.5.4-.7 1.3-1.2 2-1.2s2-.8 2.9-1.8c1.4-1.5 3.1-1.6 14.9-1.2 7.4.3 14.2 1 15.3 1.7zm-51 4.3c5 0 9.6.4 10.3.8 1.9 1.2-23.8 2.3-26 1.1-3.1-1.7-2-2.6 2.5-2.2 2.3.2 8.3.4 13.2.3zm11.5 5.7c.4.4 1 3.8 1.2 7.5l.4 6.8-5.1.1c-2.7.1-8.8.2-13.5.3l-8.5.1V152c0-6.2-.8-8-3.6-8-1 0-1.9-.4-1.9-.8 0-.5 3.7-.9 8.2-1.1 4.5-.1 8.4-.4 8.6-.5.6-.7 13.5.3 14.2 1.1zm-9.9 18.6c-.1 1.2-1.5.9-1.9-.4-.3-.6.1-1 .8-.8.6.3 1.1.8 1.1 1.2zm14 5c-1 .9-1.1.8-.5-.6.3-1 .9-1.5 1.2-1.2.3.3 0 1.1-.7 1.8z" class="svg-animated__town" style="stroke-dashoffset: 1264.38px; stroke-dasharray: 1264.38px; animation-delay: 1.2s;"></path>
    <path d="M952 150.9c-3.8 1-3.4 4.6.5 4.6 5.5.1 8.9-3.3 4.9-4.9-1.8-.7-1.9-.7-5.4.3zM886.4 130.4c-.7 1.9.3 3.6 2.2 3.6 1 0 1.4-.8 1.2-2.2-.4-2.6-2.6-3.6-3.4-1.4zM522 131.9c0 1.2.6 2.1 1.6 2.1.9 0 1.4-.7 1.2-1.7-.5-2.5-2.8-2.8-2.8-.4zM879 131.6c0 .9.7 1.4 1.7 1.2 2.5-.5 2.8-2.8.4-2.8-1.2 0-2.1.6-2.1 1.6z" class="svg-animated__town" style="stroke-dashoffset: 58.6612px; stroke-dasharray: 58.6612px; animation-delay: 1.4s;"></path>
    <path d="M311.3 132.2c-2.6 4.1-3.3 6.2-2.3 7.2 1.2 1.2 1.3 1.1 3.8-4.2 1.5-3.2 1.7-4.2.7-4.2-.8 0-1.7.6-2.2 1.2zM318.7 133.7c-.8 1-1.7 2.5-1.9 3.3-.2.8-1 2-1.8 2.7-2.3 1.7-.4 2.8 2.6 1.4 1.9-.8 2.5-1.7 2.1-3.1-.3-1.3.3-2.6 2.1-4 2.5-1.8 2.6-1.9.6-2-1.1 0-2.8.8-3.7 1.7z" class="svg-animated__forest" style="stroke-dashoffset: 52.4602px; stroke-dasharray: 52.4602px; animation-delay: 1.6s;"></path>
    <path d="M762.8 133.1c-1 .5-1.8 1.8-1.8 2.8 0 1.5.8 1.8 4.3 1.7 4.3-.1 8.5 2 7 3.5-.4.4-5.9.9-12 1-9.4.3-11.6.1-12.9-1.3-1.6-1.5-1.4-1.7 2-2.3 2-.4 5.2-.5 7.1-.3 2.9.3 3.5.1 3.5-1.5 0-1.8-.6-1.8-8.7-1.2-6.3.5-9.1 1.1-9.8 2.2-.5.9-2 2.8-3.2 4.3-1.3 1.5-2.3 3.7-2.3 4.9 0 2-.5 2.1-12 2.1-10.1 0-12 .2-12 1.5 0 1.4 2.2 1.5 18.4.9 13.9-.5 19.2-.4 21.5.6 1.7.7 2.8 1.6 2.5 2.1-.3.5-9.5.9-20.5.9-15.2 0-19.9.3-19.9 1.2 0 1 5.2 1.3 22.5 1.3 20.8 0 22.6-.1 23.1-1.8.4-1.2-.4-2.5-2.3-4-1.5-1.2-3.7-3.1-4.8-4.2l-2-2 10.9-.3c6-.1 11-.1 11.1 0 .1.2.5 1.6.9 3.2.6 2.5.5 2.8-1.3 2.3-1.4-.3-2.7.2-3.9 1.8-1.4 1.8-2.2 2.1-3.6 1.3-1-.5-1.9-.8-2.1-.6-.7.7.7 7.8 1.6 7.8.4 0 2.2-1.5 4-3.3 1.8-1.7 3.9-3 4.8-2.9.8.2 2.1-.4 2.9-1.5 1.3-1.7 1.4-1.6.8.9-.8 3.4.3 3.6 3.2.5 2.8-2.9 2.7-3.5 0-3.9-3-.4-5.1-7.4-2.7-8.9 1.1-.7.7-1.5-2.1-3.9-1.9-1.6-4.2-3-5.1-3-.9 0-2.2-.7-2.9-1.5-1.5-1.7-1.9-1.8-4.2-.4zm-17.1 10.1c3.8 3.5 3 5.4-2.1 5.6-5.5.3-6.4-.9-3.6-4.8 2.6-3.6 2.7-3.6 5.7-.8zM894.6 134.7c-.4.4-1.5.8-2.4.8-1.1 0-1.8 1-2 2.7-.3 2.7-.2 2.8 4.2 2.8 3.8 0 4.6-.3 4.6-1.8 0-2.2-3.3-5.5-4.4-4.5z" class="svg-animated__town" style="stroke-dashoffset: 423.482px; stroke-dasharray: 423.482px; animation-delay: 1.8s;"></path>
    <path d="M633 140.5c-.7.8-1 2.2-.6 3 .3.9 0 1.5-.8 1.5-1.8 0-5.6 4.3-5.7 6.6 0 1-.3 1.3-.6.6-.8-1.9-12.5-1.6-16.2.5-3.5 2.1-4 3.3-1.1 3.3 1.6 0 2.1.9 2.6 5 .8 6.4 3.4 7 2.7.6-.3-2.5-.1-4.6.5-5 .6-.3 3.6-.3 6.7 0 5.6.7 5.6.7 5.3 3.8-.3 2.9-.6 3.1-4.5 3.4-2.5.2-4.3.8-4.3 1.5 0 1.3 5.9 1.4 25.6.2 9.1-.6 12.3-.5 12.9.4.4.7 0 1.8-.8 2.4-1.9 1.4-2.6 4.9-1.2 5.3 1.4.5 5.5-5.8 5.5-8.4 0-1.7.6-2.2 2.5-2.2 1.8 0 2.5-.5 2.5-2 0-2.1 3.8-3.7 6.6-2.6.8.3 2.5-.1 3.7-.9 1.2-.8 3.3-1.5 4.8-1.5s3.2-.7 3.9-1.5c.7-.8 1.7-1.2 2.3-.8 2.2 1.3 10.2 2.1 12 1.1 1.2-.6 2.3-.6 3.3.2.7.7 2.4 1 3.6.7 2.7-.8 5.8 1.8 5.8 4.8 0 1.2 1.1 3.2 2.5 4.5 1.4 1.3 2.5 3.3 2.5 4.5 0 1.2.9 3 2 4s2 2.3 2 3c0 .7.9 2.2 2 3.5 1.1 1.3 2 3 2 3.9 0 .9.7 2.4 1.5 3.5 1.6 2.1.9 7.7-1.2 8.9-1.7 1-1.7 2.3.2 3 .7.3 2.3-.2 3.4-1.1 2-1.7 1.9-4.9-.4-14.7-.6-2.6-.3-3.2 2.4-4.8 2.4-1.4 3.5-1.6 5.2-.7 1.5.8 2.9.8 5.1.1 1.7-.6 4.5-1.1 6.2-1.1 1.8 0 3.7-.5 4.4-1.2.9-.9 2-.9 4.5-.1 1.7.6 5.3 1.4 8 1.8 3.7.5 4.7.3 4.7-.8 0-1.4-9.7-3.9-14.5-3.8-5.3.2-10.3 1-12.8 2-1.6.6-4.5.8-6.5.5-3.1-.5-4.2-.1-6.5 2l-2.7 2.5-1.3-3.2c-.8-1.8-2.1-3.8-3-4.6-1-.7-1.7-2.6-1.7-4.1 0-1.9-.8-3.3-2.5-4.4-1.4-.9-2.5-2.3-2.5-3 0-.7-1-2.6-2.2-4.1-1.3-1.7-1.8-3-1.1-3.2 1-.4.8-8-.4-11.3-.9-2.6-2.1 2.1-1.6 6.4.3 3.1.1 3.7-1 3.3-.8-.3-1.8-.3-2.2.1-.8.9-14.8.2-18.5-.8-2.1-.6-3.2-.4-4.1.6-.6.8-2.6 1.4-4.4 1.4-2.1 0-3.5.6-3.9 1.6-.3.8-1.6 1.5-2.8 1.4-5.9-.5-7.9 0-8.8 2.4-.8 2.3-1.9 2.7-10.9 4.3-4.1.7-5.1-.6-5.1-6.5V152l5.3-.1c14.4-.4 27.2-1.5 27.1-2.4 0-.6-2.4-2.1-5.2-3.5-2.8-1.4-5.7-3.1-6.4-3.8-1.3-1.3-12.9-1.5-21.6-.3-4.6.7-5.6.5-6.5-1.1-1.4-2.2-4-2.3-5.7-.3zm4 3.9c0 .6 1.6 2.7 3.5 4.6 3.1 3 3.5 3.9 3.5 8.7 0 4.1-.3 5.3-1.5 5.3-1.6 0-1.9-.5-3-5.4-.6-2.7-.7-2.8-2.5-1.1-1 .9-2 2.7-2.2 3.9-.2 1.4-1.1 2.2-3 2.4-2.5.3-2.7 0-3.3-4.3-.5-2.8-.3-5.6.5-7.5 1.2-2.9 2-3.4 4.8-3.1.7.1 1.2-1 1.2-2.9 0-1.8.4-2.9 1-2.5.6.3 1 1.2 1 1.9zm30.3 1c1.5 1 2.7 2.2 2.7 2.7s-5.6.9-12.4.9c-11.3 0-12.6-.2-15.2-2.3l-2.9-2.2 5.5-.5c11.1-1 19.4-.5 22.3 1.4z" class="svg-animated__town" style="stroke-dashoffset: 707.944px; stroke-dasharray: 707.944px; animation-delay: 2s;"></path>
    <path d="M416.5 143c-.3.6-1.9.8-3.4.5-4.8-.8-7.1 4.4-5 11.3.4 1.4-.6 2.2-5.3 4.1-2 .7-2.8 1.8-2.8 3.5 0 1.4.5 2.8 1.1 3.2 1.4.8 2.9-1.5 2.2-3.4-.5-1.1 0-1.3 2.6-.7 2.3.5 3.2.3 3.7-.9.3-.9 1.7-1.6 2.9-1.6 1.3 0 2.7-.5 3-1 .3-.6 2.1-1 4-1s3.7-.5 4.1-1.1c.4-.7 2.2-.9 4.5-.6 4.4.6 5.3-1.2 1.9-3.6-1.1-.8-1.8-2-1.5-2.8.7-1.9-.4-3.3-4.2-5.3-3.6-1.8-6.9-2.1-7.8-.6zm7.6 3.9 2.3 1.8-2.9 2.7c-1.9 1.7-3.5 2.4-4.7 2-1.2-.3-2.7.1-3.8 1.1-1.7 1.6-1.9 1.5-3.6-1-1.3-2.1-1.5-3.1-.6-5 1.2-2.6 2.7-3.2 3.7-1.5 1 1.5 3.5 1.2 3.5-.5 0-2.1 3.3-1.9 6.1.4z" class="svg-animated__forest" style="stroke-dashoffset: 138.164px; stroke-dasharray: 138.164px; animation-delay: 2.2s;"></path>
    <path d="M552 143.5c0 1.1 1.1 1.5 3.6 1.5 3.1 0 3.5-.2 2.4-1.5-.7-.8-2.3-1.5-3.6-1.5-1.5 0-2.4.6-2.4 1.5zM840 146.5c0 3.3 1.2 4.6 2.5 2.5.8-1.2-.5-6-1.6-6-.5 0-.9 1.6-.9 3.5zM852.2 145.6c.2 1.5.9 2.9 1.6 3.2 1 .3 1.3-.4 1-2.4-.2-1.5-.9-2.9-1.6-3.2-1-.3-1.3.4-1 2.4zM862.4 144.4c-.8 2.1.3 4.9 1.6 4.1.5-.3 1-1.5 1-2.5 0-2.5-1.8-3.6-2.6-1.6zM996.1 145.2c-1.2 1.9-1.1 2.3.5 3.5 2.5 1.8 5.4-.8 3.8-3.4-1.6-2.5-2.8-2.5-4.3-.1zM447 144.7c-11.1.3-14 .9-14 2.6 0 .9 2.9 1 12.2.5 6.8-.3 12.6-.7 13.1-.7.4-.1.7-.8.7-1.6s-.6-1.4-1.2-1.3c-.7.1-5.6.3-10.8.5zM533.3 148.3c-.4.7-1.9 1.8-3.3 2.4l-2.5 1.1 2.7.7c2.5.6 2.7 1.2 3.4 7.6 1 9.9 3 8.6 2.5-1.6l-.3-7.8 3.9.9c2.1.5 9.9.9 17.4.9 12 0 13.9.2 15.8 1.9 1.2 1.1 2.1 2.4 2 3-.1.6-.1 3.2 0 5.8.1 3.5.5 4.8 1.5 4.8.9 0 1.6-1.2 1.8-3.2.3-2.9.9-3.4 7.1-5.9l6.8-2.8 1.1 2.9c1.5 4.4 2.8 3.6 2.8-1.6 0-5.3.8-5.2-10.5-1-3.8 1.4-7.3 2.6-7.7 2.6-.5 0-.8-1.3-.8-3 0-3.7-3.7-5.8-12.9-7.2-10.9-1.7-29.9-2-30.8-.5zM909.9 150.1c-1.2.8-1.1 1.1.3 2.2 1.8 1.4 2 2.4 1.9 9.4 0 3.2.3 4.3 1.4 4.3.9 0 1.5-1 1.5-2.3.1-1.2.2-4.3.4-6.9.3-4 0-4.9-1.8-6.2-1.5-.9-2.7-1.1-3.7-.5zM852.5 153.6c-3.3 1.4-8.2 2.8-10.8 3.1-4.6.6-4.8.7-4.2 3.2 1 4 2.2 4.7 4.5 2.6 1.1-1 2-1.4 2-1 0 .5.5.4 1.2-.3s2-1.2 3-1.2 1.8-.6 1.8-1.3c0-.8 1.8-2 4-2.7 4.2-1.4 6.7-3.4 5.3-4.3-.4-.3-3.5.6-6.8 1.9zM497.7 152.7c-1 1-.8 4.3.2 4.3.5 0 1.1-.5 1.3-1.2.3-.7.9-.8 1.9-.3 1.7 1.1 12.9 1.5 12.9.5 0-1.5-5-3.2-7.9-2.7-1.7.4-3.3.2-3.6-.3-.7-1.1-3.8-1.3-4.8-.3z" class="svg-animated__town" style="stroke-dashoffset: 465.122px; stroke-dasharray: 465.122px; animation-delay: 2.4s;"></path>
    <path d="M524.9 153.9c-.4 7.3-.2 10.1.6 10.3.6.2 1.1-1.1 1.3-2.8.3-2.6.7-3.1 2.3-2.7 2 .6 2.3-.4 1.3-3.1-.5-1.3-.9-1.4-2-.5-1.1.9-1.4.8-1.4-.4 0-2.4-2-3.1-2.1-.8zM546.6 155.7c-.8 2.1 1 4.1 2.4 2.7 1.1-1.1.3-4.4-1-4.4-.4 0-1.1.8-1.4 1.7zM554.5 155.1c-.4.5-.3 1.9.1 3.1.6 2.1.7 2.1 2 .3.8-1 1.4-2.2 1.4-2.6 0-1.2-2.9-1.9-3.5-.8zM781.1 155.9c-.6 1-.7 2.1-.4 2.5.7.7 4.3-2.3 4.3-3.6 0-1.6-2.9-.8-3.9 1.1zM562.4 156.5c-.3.8-.3 1.9.1 2.5 1.1 1.8 2.5 1.1 2.5-1.5 0-2.7-1.7-3.4-2.6-1zM568.7 155.6c-.9.9.4 3.5 1.4 2.8.5-.3.9-1.2.9-2 0-1.4-1.2-1.9-2.3-.8zM784.2 158.3c-.7.7-.9 2.9-.6 4.9.4 2.1.2 3.8-.5 4.2-1.5 1-1.4 2.6.2 2.6 1.8-.1 7-7.7 5.7-8.5-.6-.4-.8-1.5-.5-2.6.5-1.4.2-1.9-1.3-1.9-1.1 0-2.4.6-3 1.3zM507.3 160.3c-10 1.2-9.7 3.2.3 2.4 4.2-.3 8.1-1 8.6-1.5 1.6-1.6-1.3-1.8-8.9-.9z" class="svg-animated__town" style="stroke-dashoffset: 163.469px; stroke-dasharray: 163.469px; animation-delay: 2.6s;"></path>
    <path d="M529 162c0 1.1.5 2 1 2 .6 0 1-.9 1-2s-.4-2-1-2c-.5 0-1 .9-1 2zM604.1 161.8c-.8 1.4-1.9 1.8-5 1.5-2.2-.1-4.3.1-4.6.7-.9 1.5 2.9 2.9 7.1 2.7 3-.2 4-.8 4.3-2.2.2-1.1.8-2.6 1.3-3.3.8-.9.6-1.2-.5-1.2-.9 0-2.1.8-2.6 1.8zM744.9 161.6c-1 1.2-2.3 1.4-5.1 1-2.9-.5-3.8-.3-3.8.8 0 1.9 5.3 3 7.9 1.7 1.1-.6 3.8-1.1 6.1-1.1 2.9 0 4-.4 3.7-1.3-.2-.6-1.1-1.2-2-1.2-.8 0-1.9-.4-2.3-.8-1.2-1.2-3.1-.8-4.5.9zM920.4 161.1c-1.3 2.1 1.2 2.9 9.2 2.9 6.8 0 8.4-.3 8.4-1.5 0-1.1-1.3-1.5-5.2-1.6-2.9-.1-6.8-.2-8.6-.4-1.8-.1-3.5.1-3.8.6zM489.8 161.7c-4.3.7-3.3 2.3 1.3 2.3 2.7 0 3.9-.4 3.7-1.2-.5-1.4-1.4-1.6-5-1.1zM548.5 163.9c-.6.5-2.8 1.1-5 1.3-3.7.3-4 .5-3.7 3 .4 3.1-.1 3.3-4.4 1.9-5.9-1.9-13.2-1.9-15.2-.1-1.8 1.7-2.2 1.7-8.1-.3l-6.3-2-6.4 3.2c-5.2 2.6-7.2 3.2-10.9 2.8-3.6-.4-4.8-.1-5.9 1.4-.8 1.2-3 2.1-6.2 2.5-3.4.4-4.5.3-3.5-.4.8-.6 2-.8 2.8-.5.7.3 1.3-.1 1.3-1 0-2.1-19.4-2.3-23-.2-1.4.8-3.7 2-5.2 2.7-1.6.7-2.8 1.8-2.8 2.5 0 1.8 1.3 1.6 5.3-.7l3.5-2.1 2.7 2.6c3.2 2.9 3.8 3 5.5 1 .9-1.1 3.3-1.5 8.6-1.5 7.9 0 8.8.8 6.2 4.9-1.3 2.2-.4 5.5 1.5 4.9.6-.3 1.3-2.1 1.5-4.2.2-2.3 1-4.1 2.3-4.9 1-.6 1.9-2 1.9-3 0-2.8 4.9-1.3 7.7 2.2 2.2 2.8 2.4 2.8 11.8 2.7 7.1-.2 9.9-.6 10.5-1.6.5-.8.7-1.6.5-1.8-.7-.8-6.1-1-7-.3-.5.4-2.3.7-4 .6-1.6-.1-4.7-.3-6.7-.3-5.4-.3-4.7-2.2 1.7-5.5 5.6-2.8 8.4-3.3 10.1-1.9.5.5 2.9 1.4 5.4 2.1 5.1 1.4 13 5.7 13 7.1 0 .4-2.8 1-6.2 1.3-3.5.2-8.1 1.1-10.3 2l-4 1.5v5.6c0 3.2.4 5.5 1 5.3.6-.1 1-1.9 1-3.9 0-4.3.7-5.1 5.8-6.8 4.9-1.5 44.2-1.9 45.7-.4 1.4 1.4-16.3 2.7-24.1 1.8-5.4-.6-10.6.7-9.5 2.5.3.4 9.3.6 20 .4 18.8-.3 19.6-.2 19.6 1.6s-.9 1.9-12.2 2.1c-17.1.3-18.1.3-18.5 1.7-.3.7-1.6 1.3-2.9 1.3-1.8 0-2.4.5-2.4 2.2 0 2.3-.1 2.3-12 2-10.3-.3-12-.1-12 1.2s1.7 1.6 10.3 1.7c8.6 0 20.2.9 28.2 2.1 1.2.2 2-.3 2-1.2 0-1.4-6.7-3.2-11.8-3.1-1.5 0-1.4-.4.8-2 2.8-2.3 17.1-4.3 19.1-2.8.6.5 1.4.6 1.7.2 1-1 15.2-.3 15.5.8.2.5 1.4.9 2.7.9 2.4 0 3.5 1.7 3.5 5.4 0 2 .4 2.2 5.8 1.9 3.1-.1 7.1-.2 8.7-.2 1.7.1 3.7.1 4.5 0h5.5c4 .1 7.9.1 14.5 0 1.9-.1 5.8.1 8.5.4 7.4.7 29.6.8 30.3.1 1.5-1.6-2.1-2.1-14.6-2.3-7.6-.2-16.8-.3-20.7-.4-3.8-.1-8.3 0-10 .1-4.2.3-23.4-1.5-24.2-2.4-.4-.3.2-1.2 1.2-2 1-.7 1.5-1.8 1.1-2.4-.4-.7-.1-1.2.7-1.2.8 0 1.7-.9 2-2 .3-1.1 1.1-1.9 1.9-1.8.7.2 1.3-.4 1.3-1.2 0-4.4-7-.5-10.2 5.7-1.1 2.2-1.1 2.9.1 4.8 1.4 2.1 1.3 2.2-1 1.7-1.8-.3-2.7-1.3-3.1-3.3-.5-2.6-1.8-3.5-4.6-3-.4.1-1-.6-1.3-1.4-.4-.8-1.7-1.5-3-1.5-2 0-2.4-.5-2.4-3.1s.3-2.9 2-2.4c2.7.9 6-.3 6-2.1 0-1.6-2.3-1.8-5-.4-1.2.6-2.7.7-3.7.2-1-.5-3.2-1.7-5-2.6-2.1-1.1-5.7-1.6-11.4-1.6-4.5 0-8-.2-7.7-.5.8-.8 24.4-7.5 26.4-7.5.9 0 6.8 2 13 4.5 12.5 5 12.4 5 12.4 3.2 0-.8-4.8-3.2-11.2-5.7-6.2-2.3-11.7-4.7-12.2-5.1-1.7-1.5-10.1-1-15.9 1-3.1 1.1-7.7 2.3-10.2 2.6-4.1.7-4.5.5-4.6-1.4-.1-1.1-.2-2.7-.3-3.4-.2-2 3.2-2.4 16.7-1.9 11.3.4 12.7.3 12.7-1.2 0-1.9.1-1.8-11.2-1.6-5.8.1-8.8-.2-8.8-.9 0-1.3-2.3-1.4-3.5-.2zm-11.9 9.6c4.4 1.8 3.7 3.2-2.2 4.1-3.3.5-4.9.3-6.2-.9-.9-.8-2.7-1.8-3.9-2.1-1.3-.4-2.3-1.4-2.3-2.3 0-1.3.9-1.5 5.6-.9 3 .3 7.1 1.3 9 2.1zM469 177c1.8.6.7.8-4.2.9-3.9.1-6.8-.3-6.8-.9 0-1.2 7.4-1.2 11 0zm70.7 3.5c0 1.1-1.1 1.5-4.1 1.4l-4.1-.1 3-1.3c3.9-1.8 5.2-1.8 5.2 0zM590 165c0 1.3.5 2 1.3 1.7.6-.2 1.2-1 1.2-1.7s-.6-1.5-1.2-1.8c-.8-.2-1.3.5-1.3 1.8zM727.5 164c-2.5 1-5 3.8-4.2 4.7.4.3 1.3.1 2-.6.8-.6 2.2-.8 3.1-.5 1.6.6 4.5-1.9 4.6-3.9 0-.9-2.9-.8-5.5.3z" class="svg-animated__town" style="stroke-dashoffset: 1306.87px; stroke-dasharray: 1306.87px; animation-delay: 2.8s;"></path>
    <path d="M431 165.9c-2.6.4-3.6 1.2-3.8 2.9-.2 1.2-.7 2-1.2 1.7-.5-.3-1.5.3-2.2 1.5-.7 1.1-1.8 2-2.5 2-.8 0-1.3 1.4-1.3 3.5 0 3.9-.2 4-3.3 2.4-3.5-1.8-6.7-5.1-6.7-6.9 0-3.3-5.7-3.3-12.4-.1-3.4 1.6-9.8 4.1-14.4 5.7-8.2 2.8-8.4 2.9-9.8 1-2.4-3.3-1.7-3.8 4.9-3.6 8.3.3 9.3.2 8.1-.9-.9-1-7.2-1.9-13.6-2-2.7-.1-3.8-.5-3.8-1.6 0-1.2-1.9-1.5-11.5-1.5-10.2 0-11.7-.2-13.5-2-1.1-1.1-2.6-2-3.3-2-.8 0-2.2.9-3.2 2-1.6 1.8-3.2 2-12.9 2.1-6.1.1-15.1.4-20.1.8l-9 .6-.5 5.3c-.8 7.7-2.4 8.5-16.6 8.3-6.9-.1-11.4.2-11.4.8 0 1.1 8 2.1 15.3 1.9 5.5-.2 6.8.7 4.2 2.6-1.7 1.2-1.7 1.5 1 5 1.5 2 2.9 3.6 3.2 3.6.2 0 .1-1.6-.3-3.5-.4-2.3-.2-3.5.5-3.5.6 0 1.1-.6 1.1-1.4 0-.8 1.1-2.8 2.5-4.4 1.4-1.7 2.5-3.5 2.5-4.1 0-.6 1.1-1.6 2.5-2.3 2.1-1 2.9-.7 6.3 2.3 2.2 1.9 4.2 4.2 4.5 5.1.4 1.3 1.5 1.8 4 1.8 3 0 3.5-.4 4.3-3.3.7-2.2 1.7-3.3 3.2-3.5 1.2-.2 2.2-1 2.2-1.8 0-1.9 2.6-1.8 3.4.2 1 2.7 5.1 1.3 5.4-1.9.3-2.2.7-2.7 2.2-2.2 1.4.4 2.3-.2 3.5-2.5.9-1.7 1.3-3.5 1-4-.3-.6 0-1 .8-1 .7 0 2 1.1 2.7 2.5.7 1.4 1.7 2.5 2.2 2.5.4 0 .8 1.2.8 2.6 0 3.4 2.4 2.6 2.8-.9.3-2.7.4-2.7 8.6-2.7 8.9 0 9.6.3 12.6 6.4.8 1.6 2.5 3.3 3.7 3.9 3.2 1.4 3.5 3.7 2.1 13.2-.2 1.2.4 2.1 1.4 2.3 1.5.3 1.8-.8 2-7.9l.3-8.2 5-1.7c12.5-4.3 15.5-5.1 17.5-4.5 1.5.5 2.6.1 3.5-1.2 1.4-1.7 1.4-1.7 1.5.5 0 1.2.8 2.6 1.8 2.9.9.4 4.1 2.2 7 4 4 2.6 5.2 3.9 5.2 5.8 0 1.4-.6 2.5-1.2 2.5-.7.1-2.3.9-3.6 2-2.8 2.4-2.7 7.3.1 7.8 1.5.3 1.8 0 1.2-1.8-1-3.1 1.9-4.9 6.7-4.2 2.4.3 3.8.1 3.8-.6 0-.8 1.1-.9 3.2-.5 2.2.4 3.4.2 4.2-1 2.2-2.9 12.8-2.3 14 .9.9 2.3 2.6.7 2.6-2.5 0-2.5-.5-2.9-3.6-3.4-1.9-.3-4.5-.1-5.8.4-1.3.6-3.5.7-5.4.2-3.1-.8-3.2-.8-1.7-3.7 1.7-3.2.9-5-2-4.4-1.2.2-1.8 1.5-2.1 4-.2 2.1.1 3.8.6 3.8.6 0 1 .7 1 1.6 0 1.3-.7 1.5-3 1.1-1.6-.4-3.2-.2-3.5.3-1.1 1.7-2.5 0-2.5-2.9 0-1.6-.7-3.4-1.5-4.1-1-.9-1.2-1.7-.6-2.3.5-.5.7-1.5.5-2.2-.3-.7.4-1.5 1.5-1.8 1.2-.3 2.1-1.2 2.1-2.1 0-.9.5-1.6 1.1-1.6.5 0 1.5-1.4 2-3 1-2.7 1.5-3 5.1-3 3 0 3.9.3 3.5 1.4-1 2.6 1.3 3.6 5.2 2.1 5.2-2.1 15.4-3.5 24.9-3.5 4.8 0 8.2-.4 8.2-1 0-1.6-25.7-1.2-30.4.5-3.4 1.2-4.1 1.2-5 0-1.4-1.8-5.2-2.4-9.6-1.6zm-99.5 8.6c-.3.8-.7 2.2-1 3.1-.4 1.3-.8 1.4-1.9.5-2.4-2-5.4-2-7.2 0-.9 1-2.3 1.9-3 1.9-.7 0-1.6 1.6-2 3.5-.3 1.9-.8 3.5-1 3.5-.2 0-3.1-2.7-6.6-6.1-4.2-4.1-6.7-5.9-8-5.6-1.1.3-1.8 0-1.8-.9 0-1.1 3-1.4 16.5-1.4 14.1 0 16.4.2 16 1.5zM581 166.9c0 1.2 6.8 2.7 7.7 1.7 1-1 0-1.5-4-2.1-2.2-.4-3.7-.2-3.7.4zM937.2 166.8c-1.8.2-3.6 1-3.9 1.8-.3.8-1.8 1.4-3.3 1.4-4.8 0-6 .9-6 4.6 0 2.4.5 3.4 1.6 3.4 1.9 0 4.9-2.8 4-3.8-.8-.7 6.9-3.2 10.1-3.2 1.2 0 2.5-.5 2.9-1.1 1.1-1.8-1.9-3.5-5.4-3.1z" class="svg-animated__town" style="stroke-dashoffset: 861.081px; stroke-dasharray: 861.081px; animation-delay: 3s;"></path>
    <path d="M193.5 169c-1.1.5-4.6 1.9-7.7 3.1-3.6 1.3-5.8 2.6-5.8 3.6s.5 1.3 1.8.8c.9-.4 3.1-1.2 4.7-1.7 1.7-.5 4.4-1.6 6.2-2.4 4-1.8 6.7-1.8 10.4.1 3.4 1.8 3.2 2.7-1.1 4.5-6.5 2.7-1.1 6.3 6 4 5.7-1.9 6.6-2.6 5.2-4.2-.9-1.1-.5-1.6 2.1-2.6 3.9-1.3 17.3-2.5 19.9-1.7 3.7 1.2 1.6 2.5-4.1 2.5-5.9 0-12.4 2.2-18 6.2-4.3 3.1-1.2 3.3 4.7.3 7.7-3.8 23-5 30.7-2.4 11.2 3.8 11.5 4.1 11.5 14.5 0 6.9-.5 7.4-7 7.4-2.8 0-4.2-.6-5.3-2.3l-1.6-2.2-1.9 2.4c-1.6 2-2.2 2.2-4 1.2-1.2-.6-2.5-1-2.9-.9-.4.1-1.8-.3-2.9-1-5.5-3-18-2.3-17.8 1.1.3 3.3-1.4 1.6-2-2.1-1-5.4-1.6-7.2-2.5-7.2-.5 0-4-1.8-7.9-4.1-6.4-3.7-8-4.1-16.9-4.9-5.4-.5-10.5-1.2-11.4-1.5-1-.4-3.5.7-6.3 2.7-3.9 2.7-5.6 3.3-10.1 3.3-4.6 0-5.5-.3-5.9-2-.3-1.1-2.8-3.6-5.6-5.4-2.8-1.9-5.4-4-5.8-4.6-.9-1.6-7.5-2.6-9.3-1.4-1.2.8-1.2 1 .1 1.9.8.5 2.4 1 3.5 1s3.6 1.4 5.5 3l3.5 2.9-9 .3c-4.9.1-13.2.1-18.2-.1-8-.2-9.3-.1-9.3 1.3 0 1.7 5.7 2.3 16.9 1.7 4-.2 5.2 0 4.6.9-.4.7-.9 2.2-1 3.4-.1 1.1-.3 2.4-.4 2.8 0 .5-2 .8-4.4.8-5 0-8.3 1.9-7.4 4.4.5 1.2 0 1.6-2.2 1.6-2.9 0-4.9 2.4-3.1 3.5.6.4 1 1.1 1 1.6 0 .6-.4.8-.8.5-.5-.3-8.9-.6-18.7-.7-17.2-.2-18-.3-21.7-2.7-2.6-1.8-3.8-3.3-3.8-4.9 0-2.1-.4-2.3-5.5-2.3-4.1 0-5.7.4-6.2 1.6-.8 2.2 1.3 4.2 2.9 2.6.7-.7 2.1-1.2 3.1-1.2 1.5 0 1.8.5 1.5 2.5-.6 3 1.3 4.9 4.1 4 1.5-.4 2.6.2 4.2 2.5 2.3 3 4.4 3.9 5.1 2 .4-1.3.8-1.3 15.3-.6 6.1.2 12.5.5 14.3.5 2.5.1 3.5.7 4.2 2.7.8 2.1.7 2.9-.6 3.9-2.7 1.9-.5 2.4 13.2 3 7.1.2 15.5.7 18.7 1.1 4.8.5 5.7.3 5.7-1 0-.9-.3-1.6-.7-1.7-15.7-1.8-22-2.2-25.5-1.6-4.3.8-6.8-1.7-6.8-6.8 0-4 .2-4.4 3-5 1.7-.4 3.1-1.2 3.1-1.8.1-.7.2-1.9.3-2.7 0-.8.7-1.5 1.4-1.4.6.1 3.7.2 6.7.2 5.2.2 5.5.3 5 2.5-.9 3.6 1 7.4 4.2 8.2 2.2.5 3.1.2 4.8-1.9 1.2-1.4 2.9-2.6 4-2.6 1 0 2.6-.7 3.6-1.6 1.6-1.4 2-1.4 4.3.1 1.7 1.1 3.5 1.5 5.1 1.1 1.7-.4 3.1-.1 4.2.9 1.3 1.4 1.7 1.4 3.2.2 2.6-2.4 10.1-2.6 13.9-.5 6.6 3.6 8.6 1.4 2.4-2.7-4.8-3.2-13.2-3.7-16.2-1-2.9 2.6-3.9.9-3.1-4.6.8-4.9 1.7-6.2 6.4-9.2 2.4-1.6 4-1.7 10.3-1.2 4.1.4 7.2 1 6.9 1.3-.3.3-3.5 1.5-7.2 2.7-6.3 2.1-9.6 4.5-8.1 6.1.4.3 3.1-.5 6-1.9 2.9-1.3 8.3-3.2 12-4.1 7.4-1.8 7.7-1.8 15.4 3.5 3.6 2.5 4.2 3.4 4.6 7.4.3 2.5.8 4.8 1.1 5.1.3.3 6.8.4 14.4.2 7.6-.1 22.2-.2 32.5-.2l18.6.1-.3-3.8c-.2-2.2.1-3.9.6-3.9 1.6 0 1-2.6-1.1-4.5-1.7-1.5-2.4-1.6-4.5-.7-2 .9-3 .9-4.5 0-1.5-1-2.2-.9-3.7.4-1.8 1.6-1.8 1.5-2-3.3-.2-6.2-1.1-7.3-8.1-9.9-3.2-1.2-9.3-3.9-13.7-6.1-7.9-3.8-8.1-3.9-12.6-2.5-2.5.8-5.2 1-6 .6-.8-.5-3.5-.1-6.6 1l-5.1 1.8-3.9-2.4c-3.9-2.4-9.2-3-12.8-1.4zm-43.7 16.3c.8.7 1 2.2.6 4.6-.4 2-.8 4.5-1 5.5-.4 2.2-2.1 3.6-4.5 3.6-.9 0-2.4.9-3.4 2s-2.2 2-2.7 2c-1.2 0-1-2.7.5-5.1 1-1.7.9-2.2-1.3-3.9-1.4-1.1-3.1-2-3.9-2-.9 0-1.1-.7-.7-2.3.3-1.2.6-3 .6-4 0-1.6.8-1.8 7.3-1.6 3.9.2 7.8.7 8.5 1.2zm12 6.7c.7 6.3-5.6 7.8-7.7 1.8-1.4-4-.7-5 3.7-4.6 3.1.3 3.7.7 4 2.8zm113.7 3.8c1.1 2.9-2.5 5.3-7.4 5-4-.3-4.6-.6-4.9-2.7-.5-3.1.5-3.6 6.7-3.7 3.5 0 5.2.4 5.6 1.4zm-47.7 4.9c-1 .2-2.6.2-3.5 0-1-.3-.2-.5 1.7-.5s2.7.2 1.8.5zM610 169.1c0 .7-1 .9-2.5.5-1.4-.4-3.1-.3-3.8.1-.7.4-2.1.8-3.2.8s-2.1.7-2.3 1.5c-.3 1.8 5.3 2.7 6.3 1 .3-.5 1.7-1 3-1s3-.3 3.9-.6c2-.8 2.1-3.4.1-3.4-.8 0-1.5.5-1.5 1.1z" class="svg-animated__town" style="stroke-dashoffset: 1233.96px; stroke-dasharray: 1233.96px; animation-delay: 3.2s;"></path>
    <path d="M628.3 169.7c-20.3.5-18.5 2.3 2.2 2.3 14 0 16.5-.2 16.5-1.5 0-1-.8-1.4-2.2-1.3-1.3.1-8.7.4-16.5.5zM861.6 171.8c-3.2 1.9-3.5 3.2-1.2 4.7 1.1.7 2.4.3 4.6-1.3l3-2.2-.3 2.2c-.1 1.5.3 2.3 1.3 2.3 1.9 0 3.9 2.4 4 4.7 0 2.3 2.8 4.8 4.5 4.2 1.1-.5 1.2-1.1.4-2.5-1.5-2.8-.5-3.7 4.9-4.4 2.6-.4 5.7-1.1 6.9-1.7 1.1-.6 2.6-.7 3.2-.4 1.1.7 5.1-1 5.1-2.2 0-1.8-14-.3-18.7 2-3.6 1.7-7.1.2-8.1-3.5-.7-2.6-1.3-3.2-3.8-3.4-1.6-.1-4.2.6-5.8 1.5zM912.7 172.2c-.6 2.1-.2 3.6.7 2.7 1-1.1 1.6-4.9.8-4.9-.5 0-1.2 1-1.5 2.2zM125.9 171.4c-1 1-47.2 2.8-70.5 2.7l-25.1-.1.1 10.8c.1 5.9.5 11.2.9 11.9.4.7-.1 1.4-1.3 1.8-1.1.4-1.8 1-1.5 1.4.2.5-2.3.9-5.7 1-3.4.1-6.7.6-7.3 1.1-.7.6-2 .8-2.9.4-.9-.3-2.8-.3-4.3.1-2.2.5-2.4.8-1.2 1.9 1.1 1 3.7 1.1 11.9.5 17.8-1.4 23-2.1 23-3 0-.5.6-.9 1.3-.9 2.6 0 12.2-3.3 11-3.7-.7-.3-1.3-1.1-1.3-1.9 0-1.8-1.9-1.8-2.6-.1-.5 1.4-8.1 2.1-12.4 1.2-2.1-.5-2.8-1.5-3.8-5.7-.6-2.8-1-5.4-.7-5.7.2-.4 3.2-.4 6.7 0 3.6.5 11.7.4 18.8-.2 6.9-.6 15.4-1 19-.8 3.6.1 8.1.3 10 .3 3.2.1 3.5.4 3.5 3.1 0 2 .6 3.1 1.8 3.3 2.2.4 3.4-2.5 1.9-4.8-.9-1.5-.7-1.7 1.6-1.4 3.8.4 7.2-.6 7.2-2.1 0-1-6.5-1.2-32.2-.9-19 .2-32.8-.1-33.9-.6-1.2-.7-1.9-.6-2.2.3-.3.6-.6.2-.6-.9-.1-1.2.6-2.4 1.4-2.8.8-.3 12.4-.6 25.8-.7 13.3 0 27.1-.3 30.7-.5 3.6-.2 12.9-.7 20.7-1 14.4-.7 18.2-1.5 15.3-3.4-1.7-1.1-2.4-1.2-3.1-.6zM588.2 173.2c.5 1.5 3.7 1.8 4.1.3.1-.6-.9-1.2-2.2-1.3-1.6-.3-2.2.1-1.9 1zM504.4 174.1c-.8 1.4 1.1 3.3 2.5 2.5 1.6-1 1.3-3.6-.3-3.6-.8 0-1.8.5-2.2 1.1z" class="svg-animated__town" style="stroke-dashoffset: 689.686px; stroke-dasharray: 689.686px; animation-delay: 3.4s;"></path>
    <path d="M612 176.1c0 .7-.9.9-2.4.5-2.6-.6-8.6 1.9-8.6 3.7 0 .7-.3 2.2-.6 3.4-.5 1.7-.2 2.3 1 2.3 1 0 1.6-.9 1.6-2.5s.4-2.3 1.3-1.9c.8.3 1.9-.2 2.6-1 .7-.8 1.9-1.2 2.7-.9.9.3 2.5.1 3.7-.5 3.9-1.9 9.7-2.3 9.7-.6 0 .8 1 1.4 2.5 1.4 1.8 0 2.5.5 2.5 1.9 0 1 1.6 3.5 3.5 5.6 2.7 3 3.5 4.8 3.7 8.4.2 3.3.7 4.6 1.8 4.6s1.4-.9 1.1-4c-.1-2.1-.7-4.9-1.2-6.2-.8-2.2-.6-2.3 3.7-2.3 3.1 0 5.4.7 7.1 2 1.4 1.1 3.4 2 4.4 2 1.4 0 1.9.7 1.9 2.9 0 2.1.8 3.6 3 5.1 1.8 1.3 3 3 3 4.3 0 3 4.9 8.2 6.3 6.8.8-.8.4-1.7-1.1-3.4-1.2-1.3-2.2-2.5-2.2-2.8 0-.2 2.2-.4 4.9-.4 3.2 0 5.5.6 6.8 1.7 2.6 2.4 11.3 2.5 11.3.2 0-1.3-.7-1.5-3.4-1-2.8.5-4 .2-6.6-2.1-3-2.5-3.5-2.6-7.5-1.5-4.2 1.1-4.4 1.1-7.8-2.3-1.8-1.8-3.8-4.9-4.3-6.7-.8-2.7-1.5-3.4-4.2-3.6-3.3-.3-4.1-1.9-2-4 .8-.8.8-1.5-.3-2.8-1.2-1.4-1-1.9 1.5-3.9 3.2-2.6 2.2-4-1.5-2.2-1.4.8-2.5 2.3-2.7 3.9-.4 3.8-2.3 4.9-8.2 5-5.6 0-8.2-1.5-7.8-4.5.5-3.3-4.6-5.5-12.4-5.6-4.4-.1-6.8.3-6.8 1z" class="svg-animated__forest" style="stroke-dashoffset: 273.831px; stroke-dasharray: 273.831px; animation-delay: 3.6s;"></path>
    <path d="M792.2 175.9c-2.3.4-4.8 1.3-5.4 1.9-.7.7-1.2 4.5-1.3 9-.1 4.2-.5 8.3-.9 9-1.1 1.9.2 2.8 2.2 1.5 1-.6 1.7-2.4 1.8-4.3 0-1.9.5-3.5 1.1-3.7.7-.3 1-1 .7-1.6-.4-1.3 3.9-3.7 6.7-3.7 1 0 2.1-.5 2.4-1 .4-.6 2.1-.9 3.8-.8 3.5.3 3.7.1 3.7-4 0-2.8-.2-2.9-5.2-2.9-2.9 0-7.2.2-9.6.6zm11.8 2.5c0 .9-.8 1.2-2.7.8-1.6-.3-3 .1-3.7.9-.6.8-3 1.4-5.3 1.5-3.5.1-4.3-.3-4.3-1.7s1-1.9 4.8-2.2c10.2-.8 11.2-.7 11.2.7z" class="svg-animated__town" style="stroke-dashoffset: 113.913px; stroke-dasharray: 113.913px; animation-delay: 3.8s;"></path>
    <path d="M905.7 175.7c-1.5 1.4-.6 2.3 2.2 2.3 2.4 0 4 1.2 8.6 6.7 3.5 4.3 5.4 7.5 5.1 8.5-.2 1 0 2.1.5 2.4.6.3.5 1.1-.2 2-1.5 1.8-.5 4.4 1.7 4.4 1.6 0 1.6.1 0 1.9-2.7 3 .7 3.6 4.1.7 2.7-2.3 2.7-2.5 1-4.4-1-1.1-1.9-3.5-2-5.4-.3-3.7-6-11.8-8.5-11.8-.7 0-1.2-.6-.9-1.3.6-1.9-5.3-6.7-8.3-6.7-1.5 0-3 .3-3.3.7z" class="svg-animated__forest" style="stroke-dashoffset: 91.6331px; stroke-dasharray: 91.6331px; animation-delay: 4s;"></path>
    <path d="M265.3 178.7c-1.3.3-2.3.9-2.3 1.4 0 .6 4.9.8 12.3.7 14.8-.4 16.4-2.3 1.9-2.4-5.3 0-10.7.1-11.9.3zM398 180.5c0 2.9.3 3 2.4.9 1.8-1.7 1.3-3.4-1-3.4-.8 0-1.4 1-1.4 2.5zM352 181c-.8.5-2.7 1-4.2 1-1.6 0-2.8.4-2.8.9 0 .4-1.1 2-2.6 3.6-2.7 3-3.1 8.5-.5 9.3 1.1.4 1.3-.2.8-2.8-.6-2.6-.3-3.3 1.2-3.7 1.1-.3 2.1-1.3 2.4-2.4.3-1.1 1.4-1.9 2.5-1.9s3.3-.8 4.9-1.7c3-1.6 3-1.6 6.6 2.3 2 2.1 3.7 4.5 3.7 5.2 0 2.4 2.5.6 2.8-2 .2-1.9-.2-2.8-1.8-3.3-1.1-.4-2.8-1.7-3.6-3.1-1.7-2.6-6.5-3.3-9.4-1.4zM743 181.7c0 1.2-.8 2.3-2 2.6-3.3.9-2.3 9.7 1.1 9.7 2.3 0 2.3-.4.3-3.4-.9-1.5-1.1-2.7-.5-3 .5-.4 1.2-.2 1.6.4 1.5 2.4 2.6.8 1.9-2.8-.7-4.3-2.4-6.7-2.4-3.5zM227 183.5c1 1.2 2.7 1.5 6.4 1.3 7.2-.4 6.3-2.2-1.3-2.6-5.8-.3-6.3-.1-5.1 1.3zM398.3 183.7c-1.3.5-1.8 3.5-.7 4.6 1.1 1.1 3.4-.5 3.4-2.3 0-2.2-1-2.9-2.7-2.3zM217 185.5c-1.3 1.6-.7 4.5.9 4.5.9 0 3.1-3.1 3.1-4.3 0-1.3-3-1.4-4-.2zM246 185c-1.8 1.2-.3 4.3 2.4 4.8 1.4.3 1.7-.2 1.4-2.4-.3-3.1-1.6-3.8-3.8-2.4zM582.3 185.5c-.3.9-.3 1.9.1 2.2.9 1 5.8-1.6 5.1-2.7-1-1.6-4.5-1.2-5.2.5zM329.5 186.7c-2.2.8-7.3 2-11.3 2.8-4 .8-7.7 1.7-8.2 2-.6.4-.9 2.7-.7 5.3.2 3.9.6 4.7 2.2 4.7 1.3 0 1.9-.5 1.6-1.5-1.5-5.6-1-6.2 6.9-8 4.1-.9 8.5-2 9.8-2.4 1.9-.6 2.2-.4 2.2 1.8 0 3.2-1.3 4-7.2 3.8-2.6 0-4.8.3-4.8.9 0 .5-.8.9-1.9.9-2.4 0-3.8 1.9-3.5 4.8.1 1.3-.5 2.6-1.2 2.9-2.1.8-1.7 3.3.6 3.3 2.1 0 4-2.7 4-5.8 0-2.3 4.1-4.1 8.4-3.8 2 .2 3.3 1 4 2.7l1 2.4.4-3c.2-1.6 1.1-3.4 1.9-4.1 1-.6 1.4-1.8 1-2.8-.4-.9-.2-2.7.3-4 1.3-3.5-.6-4.5-5.5-2.9zM229.7 186.7c-1 1.8.1 5.8 1.6 6.1 1.3.3 1.7-.4 1.7-3.2 0-2.5-.5-3.6-1.4-3.6-.8 0-1.7.3-1.9.7zM369.9 187.7c-.4 3.5-.7 5.1-1.3 7-.6 1.8-.4 2.3 1.1 2.3s1.8-.9 2-5c.1-2.8-.2-5-.7-5-.6 0-1 .3-1.1.7zM770.4 188.1c-.3.6-1.7.8-3 .5-1.7-.5-2.4-.2-2.4.8 0 2.3 3.6 3.9 5.8 2.7 1.3-.7 2.3-.6 3 .1 2 2 3.6-.5 2-3.1-1.4-2.2-4.3-2.8-5.4-1zM466.8 191.2c-.2 1.5-1 2.3-2.2 2.3-2.7 0-3.2 2.2-1.1 4.5 1.8 2 1.8 1.9 4.2-.5 1.4-1.3 2.2-2.9 1.8-3.5-.9-1.5 1.2-1.2 3.9.6 1.4.9 2.7 1.1 3 .5.3-.5 1.5-.7 2.6-.4 2.9.8 2.5-1.8-.7-4.1-2.4-1.8-2.7-1.8-3.8-.3-1 1.5-1.4 1.5-3.1.2-2.7-2.1-4.2-1.8-4.6.7zM778 193.6c0 4.5 2.4 4.2 2.8-.4.2-2.4-.1-3.2-1.2-3.2-1.2 0-1.6 1-1.6 3.6zM757.4 192.8c-.7 2.3-1.9 2.9-2.9 1.2-1.3-2.1-2.5.3-1.9 3.8.8 4.6 2.4 6.6 2.4 3.1 0-2 .5-2.5 2.3-2.5 1.7.1 2.3-.5 2.5-2.8.5-3.7-1.6-6-2.4-2.8zM358 197c-.8.5-4.1 1-7.2 1-5.3 0-5.8.2-5.8 2.1 0 1.2-.7 2.7-1.7 3.4-.9.7-1.4 1.9-1 2.9.8 1.9 3.7 2.2 3.7.2 0-.7.9-1.6 2-1.9 1.1-.3 2-1.2 2-2.1 0-1.2 1-1.6 3.5-1.6 1.9 0 4.4-.6 5.5-1.2 1.6-1 2.4-1 4 0 1.1.6 3.1 1.2 4.6 1.2 1.7 0 2.8.6 3.1 2 .7 2.6 2.3 2.6 2.3.1 0-2.2-1-3-6-4.9-5.3-2.1-7.4-2.3-9-1.2zM295.8 200c-2 2.1-3.7 3-6 3-3.1.1-3.2.1-1.4 1.5 3.2 2.4 7.5 1.9 8.6-1 .9-2.4 4-3.6 4-1.5 0 .5.7 1 1.5 1 2.2 0 1.8-2.7-.7-4.4-2.9-2.1-2.8-2.1-6 1.4zM482.4 199c-.5.5-5.5 1.3-11.1 1.6-7.7.5-10 1-9.6 2 .4 1.1 1.8 1.3 9.3 1.4 5.6 0 10.1-.7 11.1-1.7.8-.8 1.8-.9 3-.3 2.3 1.3 3.5-.5 1.9-2.5-1.4-1.7-3.2-1.9-4.6-.5zM280 200.8c0 2.6 3.7 5.9 5.1 4.5.8-.8.4-1.8-1.2-3.7-2.7-3.1-3.9-3.3-3.9-.8zM449.7 200.1c-1 .6-7.8 1.2-15 1.3-12.7.3-17.2 1-16.2 2.6.8 1.3 28.8.6 31.3-.9 1.8-.9 2.7-1 3.8-.1 1.4 1.2 4.4.7 4.4-.7 0-.8-4.7-3.3-5.9-3.3-.4 0-1.4.5-2.4 1.1zM377 201.7c0 .8 4.9 1.3 17.8 1.5 9.7.2 17.9.2 18.2 0 .3-.2-.3-1-1.4-1.7-2.4-1.8-34.6-1.6-34.6.2zM498.9 203.6c-.7.8-2.2 1.4-3.3 1.2-1.2-.1-2.7.1-3.5.6-.8.5-1.6.3-2.2-.5-1.1-1.9-2.5-.3-3.4 3.8-.5 2.6-.3 3.3.9 3.3.9 0 1.6-.5 1.6-1 0-.6.9-1 1.9-1 1 0 2.2-.7 2.5-1.6.3-.8 1.1-1.2 1.6-.9 2 1.2 7-.6 7-2.5 0-2.6-1.5-3.3-3.1-1.4zM724.6 203.9c-2.2.3-4.1 1.2-4.4 1.8-.4 1.5 2.3 1.6 8.8.3 4-.7 4.9-.6 7.7 1.6 3.1 2.3 6.3 3.2 6.3 1.6 0-.4-1.6-1.9-3.4-3.5-3.6-2.8-6.4-3.1-15-1.8zM558.8 204.7c-4.3 1.1-1.1 2.1 6.7 2.1 5.8-.1 8.4-.5 8.2-1.2-.4-1.1-11.7-1.8-14.9-.9zM893.2 206.2c-.7.7-1.2.8-1.2.4 0-.5-1.1-.1-2.4.7-1.9 1.3-4.4 1.5-11.3 1.2-11.2-.4-21.5.4-21 1.8.6 1.9 6.1 2.7 13 1.9 3.7-.5 9.4-.5 12.5-.1 3.8.5 6.1.4 7-.4.8-.6 3.9-1 7-1 3.4.1 6-.3 6.4-1 .6-.9.8-.9.8 0 0 1.6 7.1 1.8 8.6.3.8-.8 2.5-.8 5.5-.1 5.4 1.3 8.9 1.4 8.9.3 0-1.3-7.6-4.5-9.2-4-.7.3-2.5.2-3.9-.3-1.6-.4-3.1-.3-3.7.3-.7.7-2.2.6-4.6-.2-2.9-.9-4-.9-5.2.1-1.1.9-1.8.9-2.6.1-1.5-1.5-3.1-1.5-4.6 0zM479.2 207.2c-1.5 1.5-1.6 3.8-.2 3.8 1.2 0 2.3-2.5 1.8-4-.2-.7-.7-.7-1.6.2zM691 206.9c0 .6.5 1.3 1 1.6.6.3 1-.1 1-.9 0-.9-.4-1.6-1-1.6-.5 0-1 .4-1 .9zM134.9 207.2c-.8 1.8-.3 5.1.8 5.5 1.4.5 3.2-1.2 3.3-2.9 0-.7-3.9-3.1-4.1-2.6zM842.9 208.5c-1.1 1.2-4.2 1.7-10.8 1.9-5.1.2-9.8.9-10.4 1.5-1.7 1.7 1.7 2.4 8.6 1.7 3.4-.3 9.7-.6 13.9-.5 4.3 0 8.2-.3 8.8-.6 1.1-.7-5.3-5.5-7.3-5.5-.7 0-2 .7-2.8 1.5zM184.8 209.4c-1.8 1.4-2.4 3.6-1 3.6.4 0 1.3-.5 1.9-1.1.9-.9 1.9-.6 4.2 1 3.1 2.2 6.1 2.5 6.8.6.2-.6-1.8-2-4.4-3.3-5.5-2.6-5.3-2.5-7.5-.8zM777 210.8c0 1.1.9 2.7 1.9 3.6 1.6 1.5 2.2 1.5 4 .4 2.6-1.6 2.7-2.7.4-3.4-1-.3-2.6-1-3.5-1.5-2.5-1.3-2.8-1.2-2.8.9zM463.7 210.7c-1.6 1.5-.5 2.3 3.3 2.3 4.3 0 5.4-1.4 1.8-2.4-3-.8-4.3-.7-5.1.1zM669.7 210.7c-.4.3 0 1.8.7 3.2.8 1.4 1.7 3.4 2 4.4.3 1 1.3 1.7 2.3 1.5 1-.1 2.4.1 3.1.5 2.4 1.6 3-.4 1.1-4-2.2-4.3-3.5-4.5-3.1-.5.2 2.5.1 2.4-1.8-1-2.1-3.9-3.4-5.1-4.3-4.1zM812.5 211c-.3.5-1.7 1-3.1 1-4 0-2.9 2.7 1.4 3.3 3.8.5 6.2-1.1 6.2-4 0-1.5-3.6-1.8-4.5-.3zM704.4 213.5c-1.4 1.4-3.5 2.5-4.7 2.5-1.3 0-4 .9-6.1 2-3.1 1.5-3.6 2.1-2.2 2.6 1 .4 2.9 0 4.3-.7 1.4-.8 3.5-1.3 4.6-1.1 1.1.2 3.1-.8 4.6-2.2 1.8-1.7 3.6-2.5 5.6-2.3 2.1.1 3-.3 3.3-1.6.6-2.9-6.3-2.3-9.4.8zM750.5 212c-.3.6-1.7.7-3.1.4-2.4-.6-3 .2-1.6 2.2 1.1 1.6 4.1 2.4 4.7 1.3.4-.5 2.2-.7 4.1-.3 4.3.8 4.5-1 .4-3.1-3.4-1.8-3.7-1.8-4.5-.5zM761 212.3c0 1.2 6 3.7 8.9 3.7 2.4 0 .9-2-2.5-3.5-4.5-1.9-6.4-1.9-6.4-.2zM789.3 212.5c-.3.9-.4 1.7-.2 1.9.4.4 10.2.9 13.4.7 4.1-.2-.9-2.8-6.8-3.5-4.7-.5-5.9-.3-6.4.9zM25.7 212.6c-.4.4-3.2.6-6.3.5-6-.2-11.4.6-11.3 1.7.5 3.5-.3 7.2-1.6 7.2-1.8 0-1.9-1.1-.2-2.9 1-1.1.9-1.3-.1-.7-.7.4-1.2.1-1.2-.7 0-.8-.7-2-1.5-2.7-1.2-1-1.6-.9-2.1.5-.4 1-.1 2.1.7 2.6 1 .6 1 .9.2.9S1 220.3 1 222.1c0 2.7.3 3 2.3 2.4 1.2-.4 3.3-1.4 4.6-2.2 1.4-.9 3.5-1.3 5.2-.9 1.6.3 3.1.1 3.5-.6.9-1.4 16.6-.1 21.2 1.8 2.7 1.1 4.3 1.2 7.4.4 2.1-.6 4.2-.9 4.7-.6.5.3 3.2-.1 6-1 3.4-1 8.6-1.4 15.8-1.3 14.9.3 16.3.2 16.3-1.6s-.4-1.8-18-1.5c-7.4.1-14.1.7-14.7 1.2-.9.7-2.2.7-4.3-.2-2.5-1-3.2-1-4.5.4-2.4 2.3-5.9 2-9.5-1-2.1-1.8-3.8-2.5-5.5-2.1-1.9.3-2.5 0-2.3-1.2.3-1.6-2.3-2.7-3.5-1.5zm-9.1 2.3c-.4.5-.1 1.1.6 1.3.7.3-.5.5-2.7.5l-4 .1 3-1.3c3.7-1.7 3.8-1.7 3.1-.6zM95.7 212.9c-8.3.7-8.4 2.6-.2 2.7 8.5.1 12.5-.6 12.5-2.2 0-1.5-.4-1.5-12.3-.5zM246.7 213.7c-.3.2-3.9.6-8.1.8-4.2.1-8.3.8-9.1 1.5-1 .9-2.4.8-5.9-.4-4.4-1.5-7.6-1.3-7.6.5 0 .5 1.3.9 2.8.9 1.6 0 3.7.7 4.8 1.5 2.5 1.9 5.4 1.9 8.1 0 1.9-1.3 12.7-2.1 18.8-1.3 3.2.5 2.9-1.4-.3-2.8-1.7-.7-3.3-1-3.5-.7zM258.7 214.1c-.9.5-1.5 1.4-1.3 1.8.4.6 14.6.7 17.1 0 .6-.1 3.7.3 7 1 4.6 1 7.1 1.1 11 .2 2.8-.6 6.5-.9 8.3-.5 4 .8 4.4-1.2.5-2.7-2-.7-4-.7-7 .1-2.4.7-6 .9-8.5.5-7.9-1.3-25.2-1.6-27.1-.4zM681 215.4c0 2.3 2.5 5.4 3.6 4.3.6-.5-2.3-6.7-3.1-6.7-.3 0-.5 1.1-.5 2.4zM200.2 216.5c-2.4 1.2-4.3 2.6-4.3 3.1.1 1.5 10.1 1.3 10.1-.2 0-.8.6-1.4 1.4-1.4 2.1 0 3.1-2.1 1.5-3.1-2-1.2-3.8-.9-8.7 1.6zM657.5 216.4c-1.3 2-2.2 2.3-5.9 1.9l-4.3-.5-.1 5.1c0 2.8.3 5.3.9 5.6.9.6 3.2-3.8 3.4-6.5 0-1.1 1-1.4 3.8-1.2 3.1.2 3.9-.1 4.5-1.9.8-2 .9-2 2.5-.5 2.7 2.7 4.2.8 1.6-2-2.8-3-4.4-3-6.4 0zM165.7 217.2c-.6.4-.9.9-.6 1.2.8.9 26 1.3 26.5.5.2-.4-.2-1.1-.9-1.7-1.4-1.2-23.1-1.2-25 0zM686.2 217.6c.1.9.9 1.9 1.6 2.2.9.3 1.3-.2 1-1.4-.1-.9-.9-1.9-1.6-2.2-.9-.3-1.3.2-1 1.4z" class="svg-animated__town" style="stroke-dashoffset: 2206.97px; stroke-dasharray: 2206.97px; animation-delay: 4.1s;"></path>
  </g>
</svg>
